<svg width="37" height="37" viewBox="0 0 37 37" fill="none" xmlns="http://www.w3.org/2000/svg">
<rect width="36.6553" height="36.6553" rx="18.3276" fill="#1A4383"/>
<path d="M26.78 14.6016L18.8423 9.1031C18.7453 9.03596 18.6301 9 18.5121 9C18.3941 9 18.2789 9.03596 18.1818 9.1031L15.6743 10.8395V10.7016C15.6743 10.4758 15.5846 10.2593 15.425 10.0997C15.2654 9.94009 15.0489 9.85042 14.8231 9.85042H13.972C13.7462 9.85042 13.5297 9.94009 13.3701 10.0997C13.2105 10.2593 13.1208 10.4758 13.1208 10.7016V12.6082L10.243 14.6016C10.1819 14.6439 10.1298 14.6979 10.0896 14.7604C10.0494 14.823 10.0219 14.8928 10.0087 14.966C9.99553 15.0391 9.99691 15.1142 10.0128 15.1868C10.0287 15.2594 10.0587 15.3282 10.1012 15.3892L10.4632 15.9081C10.5521 16.0352 10.6876 16.122 10.8402 16.1494C10.9929 16.1769 11.1502 16.1429 11.2778 16.0548L11.4196 15.9575V22.9015C11.4201 23.2776 11.5697 23.6382 11.8356 23.9041C12.1016 24.1701 12.4621 24.3197 12.8382 24.3201V24.8876C12.8382 25.1886 12.9578 25.4772 13.1706 25.6901C13.3835 25.9029 13.6721 26.0225 13.9731 26.0225H23.051C23.352 26.0225 23.6407 25.9029 23.8535 25.6901C24.0663 25.4772 24.1859 25.1886 24.1859 24.8876V24.3201C24.562 24.3197 24.9226 24.1701 25.1885 23.9041C25.4544 23.6382 25.6041 23.2776 25.6045 22.9015V15.9575L25.7464 16.0548C25.874 16.1428 26.0313 16.1768 26.1839 16.1493C26.3365 16.1219 26.472 16.0351 26.5609 15.9081L26.923 15.3889C26.9654 15.3279 26.9955 15.2592 27.0113 15.1866C27.0272 15.114 27.0286 15.039 27.0154 14.9658C27.0022 14.8927 26.9747 14.8229 26.9345 14.7604C26.8943 14.6979 26.8422 14.6439 26.7811 14.6016H26.78ZM13.6883 10.7016C13.6883 10.6263 13.7182 10.5542 13.7714 10.501C13.8246 10.4477 13.8967 10.4179 13.972 10.4179H14.8231C14.8984 10.4179 14.9706 10.4477 15.0238 10.501C15.077 10.5542 15.1069 10.6263 15.1069 10.7016V11.2327L13.6883 12.2152V10.7016ZM23.6185 24.8876C23.6185 25.0381 23.5587 25.1824 23.4523 25.2888C23.3458 25.3952 23.2015 25.455 23.051 25.455H13.972C13.8215 25.455 13.6772 25.3952 13.5707 25.2888C13.4643 25.1824 13.4045 25.0381 13.4045 24.8876V20.9155C13.4045 20.765 13.4643 20.6207 13.5707 20.5143C13.6772 20.4078 13.8215 20.3481 13.972 20.3481H23.051C23.2015 20.3481 23.3458 20.4078 23.4523 20.5143C23.5587 20.6207 23.6185 20.765 23.6185 20.9155V24.8876ZM18.5115 18.6457C18.3993 18.6457 18.2896 18.6125 18.1962 18.5501C18.1029 18.4878 18.0302 18.3991 17.9873 18.2954C17.9443 18.1918 17.9331 18.0777 17.955 17.9676C17.9769 17.8575 18.0309 17.7564 18.1103 17.6771C18.1896 17.5977 18.2907 17.5437 18.4008 17.5218C18.5109 17.4999 18.625 17.5111 18.7287 17.5541C18.8323 17.597 18.921 17.6697 18.9833 17.763C19.0457 17.8564 19.0789 17.9661 19.0789 18.0783C19.0789 18.2288 19.0192 18.3731 18.9127 18.4795C18.8063 18.586 18.662 18.6457 18.5115 18.6457ZM17.7801 18.9388C17.9827 19.1157 18.2425 19.2132 18.5115 19.2132C18.7805 19.2132 19.0403 19.1157 19.2429 18.9388L20.7969 19.7806H16.2261L17.7801 18.9388ZM25.0371 22.9015C25.0371 23.1273 24.9474 23.3438 24.7878 23.5034C24.6281 23.663 24.4116 23.7527 24.1859 23.7527V20.9155C24.1859 20.6145 24.0663 20.3258 23.8535 20.113C23.6407 19.9002 23.352 19.7806 23.051 19.7806H21.9879L19.572 18.4718C19.6375 18.3 19.6602 18.1148 19.6383 17.9323C19.6163 17.7497 19.5503 17.5752 19.446 17.4238C19.3416 17.2724 19.2021 17.1487 19.0393 17.0631C18.8765 16.9776 18.6954 16.933 18.5115 16.933C18.3276 16.933 18.1465 16.9776 17.9837 17.0631C17.821 17.1487 17.6814 17.2724 17.577 17.4238C17.4727 17.5752 17.4067 17.7497 17.3847 17.9323C17.3628 18.1148 17.3855 18.3 17.451 18.4718L15.0351 19.7806H13.972C13.671 19.7806 13.3823 19.9002 13.1695 20.113C12.9567 20.3258 12.8371 20.6145 12.8371 20.9155V23.7527C12.6114 23.7527 12.3949 23.663 12.2352 23.5034C12.0756 23.3438 11.9859 23.1273 11.9859 22.9015V15.5654L18.5183 11.0517L25.0371 15.5645V22.9015ZM26.0684 15.5884L18.8423 10.5855C18.7453 10.5184 18.6301 10.4824 18.5121 10.4824C18.3941 10.4824 18.2789 10.5184 18.1818 10.5855L10.9546 15.5884C10.9526 15.5898 10.9503 15.5909 10.9479 15.5914C10.9455 15.592 10.943 15.5921 10.9406 15.5916C10.9382 15.5912 10.9358 15.5903 10.9338 15.589C10.9317 15.5876 10.9299 15.5859 10.9285 15.5838L10.5673 15.0683L18.5183 9.56925L26.4557 15.0646L26.0684 15.5884Z" fill="white"/>
<path d="M15.107 21.4829H14.5396C14.4643 21.4829 14.3922 21.5128 14.339 21.566C14.2858 21.6192 14.2559 21.6914 14.2559 21.7666V24.0364C14.2559 24.1116 14.2858 24.1838 14.339 24.237C14.3922 24.2902 14.4643 24.3201 14.5396 24.3201C14.6148 24.3201 14.687 24.2902 14.7402 24.237C14.7934 24.1838 14.8233 24.1116 14.8233 24.0364V23.1852H15.107C15.1823 23.1852 15.2544 23.2151 15.3076 23.2683C15.3608 23.3215 15.3907 23.3937 15.3907 23.469V24.0364C15.3907 24.1116 15.4206 24.1838 15.4738 24.237C15.527 24.2902 15.5992 24.3201 15.6745 24.3201C15.7497 24.3201 15.8219 24.2902 15.8751 24.237C15.9283 24.1838 15.9582 24.1116 15.9582 24.0364V23.469C15.9574 23.2589 15.8786 23.0566 15.7369 22.9015C15.8478 22.7799 15.9209 22.6286 15.9473 22.4661C15.9737 22.3036 15.9521 22.1369 15.8853 21.9865C15.8185 21.836 15.7093 21.7083 15.5711 21.6188C15.4329 21.5294 15.2716 21.4822 15.107 21.4829ZM14.8233 22.6178V22.0504H15.107C15.1823 22.0504 15.2544 22.0803 15.3076 22.1335C15.3608 22.1867 15.3907 22.2588 15.3907 22.3341C15.3907 22.4093 15.3608 22.4815 15.3076 22.5347C15.2544 22.5879 15.1823 22.6178 15.107 22.6178H14.8233Z" fill="white"/>
<path d="M22.4838 21.4829H21.3489C21.2737 21.4829 21.2015 21.5128 21.1483 21.566C21.0951 21.6192 21.0652 21.6914 21.0652 21.7666C21.0652 21.8419 21.0951 21.914 21.1483 21.9673C21.2015 22.0205 21.2737 22.0504 21.3489 22.0504H21.6326V24.0364C21.6326 24.1116 21.6625 24.1838 21.7157 24.237C21.7689 24.2902 21.8411 24.3201 21.9163 24.3201C21.9916 24.3201 22.0638 24.2902 22.117 24.237C22.1702 24.1838 22.2001 24.1116 22.2001 24.0364V22.0504H22.4838C22.559 22.0504 22.6312 22.0205 22.6844 21.9673C22.7376 21.914 22.7675 21.8419 22.7675 21.7666C22.7675 21.6914 22.7376 21.6192 22.6844 21.566C22.6312 21.5128 22.559 21.4829 22.4838 21.4829Z" fill="white"/>
<path d="M17.9445 22.0504C18.0197 22.0504 18.0919 22.0205 18.1451 21.9673C18.1983 21.914 18.2282 21.8419 18.2282 21.7666C18.2282 21.6914 18.1983 21.6192 18.1451 21.566C18.0919 21.5128 18.0197 21.4829 17.9445 21.4829H16.8096C16.7344 21.4829 16.6622 21.5128 16.609 21.566C16.5558 21.6192 16.5259 21.6914 16.5259 21.7666V24.0364C16.5259 24.1116 16.5558 24.1838 16.609 24.237C16.6622 24.2902 16.7344 24.3201 16.8096 24.3201H17.9445C18.0197 24.3201 18.0919 24.2902 18.1451 24.237C18.1983 24.1838 18.2282 24.1116 18.2282 24.0364C18.2282 23.9611 18.1983 23.889 18.1451 23.8358C18.0919 23.7826 18.0197 23.7527 17.9445 23.7527H17.0933V23.1852H17.377C17.4523 23.1852 17.5245 23.1553 17.5777 23.1021C17.6309 23.0489 17.6608 22.9768 17.6608 22.9015C17.6608 22.8263 17.6309 22.7541 17.5777 22.7009C17.5245 22.6477 17.4523 22.6178 17.377 22.6178H17.0933V22.0504H17.9445Z" fill="white"/>
<path d="M20.2138 21.4827C20.1385 21.4827 20.0664 21.5126 20.0132 21.5658C19.96 21.619 19.9301 21.6912 19.9301 21.7664V22.8343L19.3343 21.6396C19.3061 21.5815 19.2591 21.5348 19.2009 21.5071C19.1426 21.4793 19.0767 21.4723 19.0139 21.487C18.9511 21.5018 18.8953 21.5375 18.8555 21.5883C18.8157 21.6391 18.7945 21.7019 18.7952 21.7664V24.0362C18.7952 24.1114 18.8251 24.1836 18.8783 24.2368C18.9315 24.29 19.0037 24.3199 19.0789 24.3199C19.1542 24.3199 19.2263 24.29 19.2795 24.2368C19.3327 24.1836 19.3626 24.1114 19.3626 24.0362V22.9682L19.9584 24.163C19.9821 24.2104 20.0186 24.2502 20.0637 24.2779C20.1088 24.3056 20.1608 24.3202 20.2138 24.3199C20.2356 24.3198 20.2574 24.3173 20.2788 24.3125C20.341 24.2979 20.3965 24.2626 20.4362 24.2124C20.476 24.1623 20.4975 24.1001 20.4975 24.0362V21.7664C20.4975 21.6912 20.4676 21.619 20.4144 21.5658C20.3612 21.5126 20.289 21.4827 20.2138 21.4827Z" fill="white"/>
</svg>
