<svg width="38" height="37" viewBox="0 0 38 37" fill="none" xmlns="http://www.w3.org/2000/svg">
<rect x="0.830139" y="0.00976562" width="36.6553" height="36.6553" rx="18.3276" fill="#1A4383"/>
<path d="M18.2874 13.0705C18.4279 13.1128 18.5298 13.149 18.6132 13.1865C18.9772 13.3185 19.0075 13.4054 19.0075 13.4765C19.0075 13.6038 18.861 13.7102 18.6309 13.748C18.5853 13.7577 18.5264 13.763 18.4601 13.763C18.4466 13.763 18.4228 13.762 18.3993 13.7609L18.3813 13.7601C18.3592 13.7588 18.3454 13.7575 18.3349 13.7588C18.1616 13.7384 18.0084 13.6935 17.8791 13.6249C17.7111 13.5356 17.5152 13.5718 17.4016 13.7128C17.3319 13.7992 17.3031 13.9117 17.3232 14.0213C17.3419 14.124 17.4029 14.2127 17.4909 14.2645C17.6948 14.3841 17.93 14.4639 18.1912 14.5017V14.6477C18.1912 14.8141 18.3267 14.9495 18.4931 14.9495C18.6595 14.9495 18.7949 14.8141 18.7949 14.6477V14.5059C19.0838 14.4618 19.3257 14.353 19.5148 14.1821C19.7369 13.9806 19.8494 13.7326 19.8494 13.4445C19.8494 13.1857 19.7504 12.9649 19.5552 12.7885L19.5547 12.7883C19.3738 12.6267 19.0857 12.4775 18.6935 12.343C18.5445 12.3042 18.4173 12.2564 18.2675 12.1827C18.1397 12.1204 18.0602 12.0338 18.0602 11.9572C18.0602 11.8331 18.1703 11.7348 18.3441 11.7013C18.4318 11.6897 18.4925 11.6841 18.5351 11.6841C18.6655 11.6841 18.7965 11.7074 18.9238 11.7528C18.9642 11.7679 19.0025 11.7845 19.0376 11.8027C19.1995 11.887 19.391 11.8489 19.503 11.71C19.5711 11.625 19.5983 11.5149 19.5772 11.4079C19.5552 11.2976 19.4855 11.2027 19.386 11.1478C19.2114 11.0514 19.0128 10.9844 18.7949 10.9482V10.8019C18.7949 10.6355 18.6594 10.5 18.4931 10.5C18.3267 10.5 18.1912 10.6355 18.1912 10.8019V10.9426C17.8814 10.9941 17.6319 11.1283 17.4489 11.3414C17.3179 11.494 17.2371 11.6918 17.2215 11.8983C17.1996 12.1939 17.2912 12.4405 17.4943 12.6315C17.6646 12.7917 17.9301 12.939 18.2874 13.0705Z" fill="white"/>
<path d="M17.24 8.61133C18.0146 8.04172 19.0532 8.04168 19.8279 8.61133L22.3464 10.4639C22.9035 10.8739 23.236 11.5317 23.2361 12.2227V15.0771C23.2361 16.2811 22.2566 17.2615 21.0525 17.2617H16.0154C14.8112 17.2615 13.8318 16.2812 13.8318 15.0771V12.2227C13.8319 11.5315 14.1644 10.8737 14.7214 10.4639L17.24 8.61133ZM18.5339 9.23242C18.3064 9.23242 18.0809 9.30306 17.8855 9.43945L17.8718 9.44629L17.8601 9.45508L15.3415 11.3066C15.0517 11.5202 14.8787 11.8624 14.8786 12.2227V15.0771C14.8786 15.7043 15.3883 16.2147 16.0154 16.2148H21.0525C21.6795 16.2146 22.1892 15.7043 22.1892 15.0771V12.2227C22.1891 11.9073 22.0565 11.6061 21.8288 11.3926L21.7263 11.3066L19.2077 9.45508C19.0067 9.30727 18.7704 9.23244 18.5339 9.23242Z" fill="white" stroke="#1A4383" stroke-width="0.348932"/>
<path d="M24.4669 17.1201C24.9604 16.7132 25.6334 16.578 26.21 16.8145C26.8583 17.0804 27.2658 17.6997 27.253 18.4014C27.2453 18.8245 27.0551 19.2325 26.755 19.5518L20.8438 25.8408C20.2556 26.4653 19.462 26.8589 18.6094 26.9502H18.6085L13.1651 27.5508C13.0918 27.5589 13.0184 27.5625 12.9454 27.5625C12.3456 27.5625 11.7817 27.2905 11.3995 26.7969C11.0586 26.3565 10.9405 25.7739 11.0372 25.2119L11.7852 20.8643C11.9473 19.9238 12.7563 19.2414 13.71 19.2412H19.1846C20.2385 19.2412 21.0774 20.1789 20.9122 21.2646C20.8001 21.9994 20.2003 22.5769 19.4561 22.7188L15.8585 23.4033C15.558 23.4595 15.2668 23.2474 15.2383 22.9346C15.2145 22.6723 15.4178 22.4214 15.7022 22.3672L19.3165 21.6797C19.6469 21.6166 19.8867 21.3268 19.8868 20.9902C19.8868 20.6032 19.5717 20.2881 19.1846 20.2881H13.71C13.2677 20.2883 12.8919 20.606 12.8165 21.042L12.0577 25.4551C12.0093 25.738 12.0944 26.0215 12.2911 26.2305C12.4878 26.4394 12.7646 26.5419 13.0508 26.5107L18.4962 25.9102C19.0266 25.8535 19.5231 25.6321 19.918 25.2812L20.0811 25.123L26.0382 18.7861C26.1705 18.6453 26.2038 18.4894 26.2061 18.375L26.2003 18.2764C26.1854 18.1688 26.1271 17.9625 25.9063 17.8291H25.9053C25.6785 17.6929 25.392 17.7142 25.1885 17.8809L25.1876 17.8818C24.6027 18.364 23.7394 19.0766 23.1856 19.5342C22.9633 19.7179 22.6348 19.6868 22.4503 19.4639C22.2658 19.2407 22.2963 18.9114 22.5186 18.7275C23.0555 18.284 23.8838 17.601 24.4669 17.1201Z" fill="white" stroke="#1A4383" stroke-width="0.348932"/>
</svg>
