<svg width="36" height="36" viewBox="0 0 36 36" fill="none" xmlns="http://www.w3.org/2000/svg">
<rect width="35.0488" height="35.0488" rx="17.5244" fill="#1A4383"/>
<path d="M18.8259 19.6506C21.1451 19.6506 23.0318 17.8604 23.0318 15.6601C23.0318 13.9709 21.8843 12.271 20.1085 11.33C20.062 11.3054 20.0431 11.2503 20.064 11.2019L20.5579 10.0577C20.691 9.74967 20.6137 9.39251 20.3657 9.16912C20.1456 8.97162 19.8313 8.9454 19.5827 9.10472L19.4439 9.19401C19.4021 9.22057 19.358 9.2209 19.3168 9.19435L19.1741 9.10307C18.959 8.96564 18.6918 8.96564 18.4773 9.10307L18.3339 9.19435C18.2928 9.22057 18.249 9.22057 18.2085 9.19468L18.0677 9.10406C17.8198 8.94507 17.5051 8.97096 17.285 9.16879C17.0371 9.39218 16.9601 9.74934 17.0928 10.0574L17.5871 11.2022C17.608 11.25 17.5888 11.3048 17.5423 11.3293C15.7664 12.2707 14.619 13.9702 14.619 15.6594C14.619 17.8604 16.5063 19.6506 18.8259 19.6506ZM17.5801 9.84726C17.5366 9.74668 17.5602 9.63549 17.6399 9.56346C17.6634 9.54254 17.691 9.53159 17.7185 9.53159C17.7398 9.53159 17.761 9.5379 17.7806 9.55051L17.9223 9.64179C18.1381 9.77888 18.4053 9.77855 18.6194 9.64146L18.7628 9.55018C18.8036 9.52396 18.8471 9.52396 18.8883 9.55018L19.031 9.64146C19.2454 9.77855 19.5126 9.77888 19.7297 9.6408L19.8695 9.55084C19.9153 9.5213 19.9694 9.52628 20.0105 9.56312C20.0905 9.63515 20.1141 9.74668 20.0706 9.84693L19.5767 10.9908C19.5445 11.0648 19.5279 11.1415 19.5246 11.2171C19.351 11.2543 19.1598 11.2739 18.9603 11.2739C18.6805 11.2739 18.4053 11.2337 18.1856 11.1614C18.1633 11.1541 18.1408 11.1501 18.1185 11.1488C18.1109 11.0953 18.0963 11.0425 18.074 10.9911L17.5801 9.84726ZM17.7909 11.7987C17.8639 11.7599 17.9267 11.7081 17.9771 11.6477C17.9904 11.6546 18.004 11.6609 18.0189 11.6659C18.2948 11.7572 18.6204 11.8053 18.9603 11.8053C19.2345 11.8053 19.499 11.7735 19.7364 11.7131C19.7732 11.7456 19.814 11.7748 19.8595 11.799C21.4641 12.6494 22.5007 14.165 22.5007 15.6604C22.5007 17.568 20.852 19.1201 18.8255 19.1201C16.7984 19.1201 15.1494 17.568 15.1494 15.6604C15.1497 14.1647 16.1863 12.6491 17.7909 11.7987ZM17.5147 16.3588L19.7221 14.1514C19.8257 14.0479 19.9936 14.0479 20.0972 14.1514C20.2007 14.255 20.2007 14.4229 20.0972 14.5265L17.8898 16.7339C17.838 16.7856 17.77 16.8115 17.7023 16.8115C17.6346 16.8115 17.5665 16.7856 17.5147 16.7339C17.4112 16.6303 17.4112 16.4623 17.5147 16.3588ZM17.9157 15.3115C18.1099 15.3115 18.3044 15.2378 18.4524 15.0905C18.5958 14.9471 18.6748 14.7565 18.6748 14.5537C18.6748 14.3509 18.5958 14.1604 18.4524 14.017C18.1564 13.7212 17.6751 13.7209 17.379 14.017L17.3786 14.0173C17.0842 14.3131 17.0842 14.7941 17.3796 15.0908C17.5277 15.2378 17.7215 15.3115 17.9157 15.3115ZM17.7547 14.3917C17.7979 14.3489 17.855 14.325 17.9157 14.325C17.9768 14.325 18.0339 14.3489 18.077 14.3921C18.1202 14.4352 18.1441 14.4927 18.1441 14.5534C18.1441 14.6145 18.1202 14.6716 18.0777 14.7144C17.9884 14.8033 17.843 14.8033 17.7547 14.7154C17.6661 14.6261 17.6661 14.481 17.7547 14.3917ZM19.198 15.8357C19.0542 15.9794 18.9752 16.1702 18.9756 16.3731C18.9759 16.5755 19.0549 16.7657 19.198 16.9081C19.3414 17.0515 19.5319 17.1305 19.7347 17.1305C19.9375 17.1305 20.128 17.0515 20.2714 16.9081C20.5665 16.613 20.5665 16.1324 20.2714 15.8357C20.128 15.6923 19.9375 15.6133 19.7347 15.6133C19.5319 15.6133 19.3414 15.6923 19.198 15.8357ZM19.8964 16.533C19.8532 16.5762 19.7958 16.6001 19.735 16.6001C19.6743 16.6001 19.6169 16.5762 19.5731 16.5327C19.5302 16.4902 19.5067 16.4335 19.5067 16.3727C19.5067 16.3116 19.5302 16.2542 19.5737 16.2111C19.6169 16.1679 19.6743 16.144 19.735 16.144C19.7958 16.144 19.8532 16.1679 19.896 16.2104C19.9846 16.2997 19.9846 16.4444 19.8964 16.533ZM25.4838 21.8612C25.3493 21.4609 24.877 21.1131 23.9549 21.3378L20.6814 22.1341C20.5513 21.9986 20.3684 21.8848 20.1244 21.8131L16.0041 20.6032C15.23 20.3755 14.5034 20.3533 13.7174 20.5332L12.6529 20.7761V20.403C12.6529 20.0771 12.3877 19.8122 12.0621 19.8122H9.59184C9.26555 19.8122 9 20.0774 9 20.403V25.1417C9 25.4677 9.26555 25.7326 9.59184 25.7326H12.0624C12.3884 25.7326 12.6533 25.4673 12.6533 25.1417V24.7902L16.1498 25.8049C16.5857 25.9317 17.0125 25.9951 17.4347 25.9951C18.0339 25.9951 18.6234 25.8673 19.2152 25.6111L24.7366 23.2192C25.3258 22.9639 25.6537 22.3674 25.4838 21.8612ZM12.1228 25.1417C12.1228 25.1742 12.0953 25.2018 12.0627 25.2018H9.59184C9.55864 25.2018 9.53076 25.1742 9.53076 25.1417V20.4034C9.53076 20.3708 9.55864 20.3433 9.59184 20.3433H12.0624C12.0946 20.3433 12.1225 20.3715 12.1225 20.4034V25.1417H12.1228ZM24.5258 22.7322L19.0044 25.1241C18.1139 25.5098 17.2286 25.5659 16.2979 25.2954L12.6533 24.2379V21.3208L13.8359 21.051C14.5393 20.89 15.1617 20.9089 15.8547 21.1127L19.975 22.3226C20.1655 22.3787 20.2827 22.4647 20.3471 22.5593C20.3508 22.5663 20.3551 22.5729 20.3594 22.5795C20.4128 22.6698 20.4208 22.7661 20.3992 22.8514C20.3428 23.0734 20.0852 23.2696 19.6527 23.176L15.4929 22.2738C15.3499 22.2426 15.2085 22.3336 15.1773 22.477C15.1461 22.62 15.237 22.7614 15.3804 22.7926L19.5402 23.6948C19.6547 23.7197 19.7632 23.731 19.8661 23.731C20.4298 23.731 20.8108 23.3848 20.9134 22.9825C20.9426 22.868 20.9486 22.7442 20.9283 22.6207L24.0807 21.8539C24.56 21.7371 24.9049 21.8048 24.9809 22.0308C25.0523 22.243 24.8863 22.5759 24.5258 22.7322Z" fill="white"/>
</svg>
