<svg xmlns="http://www.w3.org/2000/svg" width="36" height="36" viewBox="0 0 36 36" fill="none">
	<rect y="0.949219" width="35.0488" height="35.0488" rx="17.5244" fill="#5E7489" />
	<path d="M24.8384 19.1562C24.813 18.8198 24.589 18.4868 24.1723 18.1669L19.2534 14.389C18.7876 14.0311 18.1733 13.834 17.5238 13.834C16.8746 13.834 16.2604 14.0311 15.7946 14.389L10.8756 18.1669C10.4586 18.4871 10.2346 18.8201 10.214 19.1306C10.1796 19.262 10.1621 19.3946 10.1621 19.5246V26.4734C10.1621 27.422 11.0156 28.1936 12.0646 28.1936H22.9833C24.0323 28.1936 24.8855 27.422 24.8855 26.4734V19.5246C24.8856 19.3949 24.8683 19.2625 24.8384 19.1562Z" fill="white" />
	<path d="M17.5498 9.07715C17.6749 9.08169 17.815 9.12201 17.9678 9.21094L18.125 9.31641L22.4248 12.6172L25.9102 15.2949C26.1506 15.4789 26.24 15.6308 26.2324 15.7949L26.2236 15.8652C26.1782 16.0906 26.0133 16.2532 25.7803 16.3184C25.5742 16.3759 25.3218 16.353 25.0908 16.2178L24.9932 16.1523C24.4953 15.7786 24.0023 15.4008 23.5098 15.0215L22.0293 13.8799C21.3773 13.3788 20.7246 12.8805 20.0742 12.3809L18.1309 10.873C17.9776 10.7525 17.7937 10.6365 17.5693 10.6318C17.399 10.6284 17.2496 10.69 17.1162 10.7744L16.9873 10.8652C15.852 11.7447 14.7127 12.6203 13.5713 13.4941L10.1436 16.1123C10.0328 16.1968 9.92136 16.2677 9.81348 16.3154L9.70703 16.3555C9.4271 16.4368 9.13248 16.3444 8.96289 16.1738L8.89844 16.0957C8.77767 15.9199 8.78152 15.6774 8.95996 15.4814L9.04688 15.4014C9.53194 15.0194 10.0564 14.6309 10.5635 14.2363L11.0625 13.8389C11.1744 13.7477 11.2665 13.629 11.3311 13.5068C11.3789 13.4163 11.4178 13.3115 11.4365 13.2021L11.4482 13.0908C11.4715 12.2998 11.4632 11.5052 11.4609 10.7041H13.1494V12.1826L13.6582 11.833L14.0479 11.5645L17.041 9.25977C17.2167 9.12437 17.3864 9.07132 17.5498 9.07715Z" stroke="white" stroke-opacity="0.6" stroke-width="0.650205" />
	<path d="M17.5234 14.1406C18.0395 14.1406 18.523 14.2777 18.9082 14.5215L19.0664 14.6318L23.9854 18.4102C24.371 18.7063 24.5173 18.9686 24.5332 19.1797L24.5352 19.21L24.5439 19.2393C24.5652 19.3148 24.5791 19.4189 24.5791 19.5244V26.4736C24.579 27.2246 23.8928 27.8877 22.9834 27.8877H12.0645C11.155 27.8876 10.4689 27.2246 10.4688 26.4736V19.5244C10.4688 19.4219 10.4827 19.3152 10.5107 19.208L10.5176 19.1797L10.5195 19.1504C10.5302 18.9929 10.6395 18.7735 10.9277 18.5205L11.0625 18.4102L15.9814 14.6318C16.3879 14.3196 16.9344 14.1407 17.5234 14.1406Z" stroke="white" stroke-opacity="0.25" stroke-width="0.612731" />
	<path d="M10.7793 22.5312H24.2762V26.2018C24.2762 27.0362 23.5998 27.7125 22.7655 27.7125H12.29C11.4557 27.7125 10.7793 27.0362 10.7793 26.2018V22.5312Z" fill="#5E7489" />
	<path d="M14.8752 24.3947C15.2685 24.3947 15.6619 24.3943 16.0553 24.3948C16.28 24.3952 16.4379 24.5428 16.4352 24.748C16.4326 24.9466 16.2744 25.0886 16.0538 25.0887C15.2598 25.0891 14.4658 25.0896 13.6718 25.0885C13.487 25.0883 13.3397 24.9618 13.3158 24.7896C13.2917 24.616 13.4031 24.4502 13.5773 24.406C13.6185 24.3956 13.6629 24.3953 13.7059 24.3952C14.0957 24.3944 14.4854 24.3947 14.8752 24.3947Z" fill="white" />
	<path d="M14.5254 23.522C14.5289 23.3287 14.6895 23.1763 14.884 23.1818C15.0707 23.187 15.2225 23.3469 15.2194 23.5348C15.2161 23.7261 15.0524 23.8815 14.8603 23.8755C14.6734 23.8697 14.5221 23.71 14.5254 23.522Z" fill="white" />
	<path d="M14.5254 25.9496C14.5277 25.7571 14.6889 25.6026 14.8824 25.6075C15.0698 25.6123 15.2211 25.7702 15.2195 25.9592C15.2178 26.1463 15.0603 26.3019 14.8731 26.3015C14.6798 26.3012 14.5231 26.1426 14.5254 25.9496Z" fill="white" />
	<path d="M14.5263 19.9956C14.2388 19.9956 13.9681 19.9962 13.6975 19.9955C13.4694 19.9948 13.3116 19.8513 13.3125 19.6469C13.3134 19.4437 13.4724 19.3019 13.7008 19.3016C13.9712 19.3012 14.2415 19.3015 14.5262 19.3015C14.5262 19.2206 14.5262 19.1462 14.5262 19.0717C14.5262 18.8586 14.5237 18.6455 14.5269 18.4324C14.5298 18.2389 14.6836 18.0885 14.8719 18.0879C15.0602 18.0873 15.2166 18.2369 15.2191 18.43C15.2228 18.715 15.22 19.0001 15.22 19.3014H15.328C15.5772 19.3015 15.8264 19.3002 16.0756 19.3021C16.2782 19.3037 16.4318 19.4523 16.434 19.6445C16.4362 19.8403 16.2799 19.9941 16.0728 19.9953C15.7921 19.997 15.5114 19.9957 15.2203 19.9957C15.2203 20.2907 15.2218 20.5751 15.2198 20.8594C15.2187 21.015 15.1272 21.1394 14.985 21.1892C14.8472 21.2374 14.6907 21.2013 14.6081 21.0786C14.5626 21.0112 14.5326 20.9208 14.5298 20.8396C14.5204 20.5627 14.5263 20.2852 14.5263 19.9956Z" fill="#5E7489" />
	<path d="M19.4908 24.3956C19.101 24.3957 18.7113 24.396 18.3215 24.3955C18.0945 24.3952 17.9363 24.2508 17.9375 24.0467C17.9387 23.8422 18.0952 23.7017 18.3249 23.7016C19.1117 23.7011 19.8984 23.701 20.6852 23.7015C20.9027 23.7017 21.059 23.8489 21.0588 24.0501C21.0585 24.2493 20.9002 24.3951 20.6818 24.3953C20.2848 24.3959 19.8878 24.3955 19.4908 24.3956Z" fill="white" />
	<path d="M19.4977 25.0882C19.8911 25.0882 20.2844 25.0877 20.6778 25.0884C20.9035 25.0888 21.0618 25.2357 21.0591 25.4401C21.0564 25.6395 20.899 25.7822 20.6789 25.7823C19.8886 25.7828 19.0983 25.7829 18.308 25.7823C18.0972 25.7822 17.9402 25.6363 17.9375 25.4415C17.9347 25.2405 18.0916 25.089 18.3068 25.0885C18.7038 25.0874 19.1008 25.0881 19.4977 25.0882Z" fill="white" />
	<path d="M19.4976 19.1616C19.769 18.8895 20.0285 18.6241 20.2938 18.3645C20.4924 18.1702 20.8045 18.2588 20.8748 18.5263C20.909 18.6563 20.868 18.768 20.7744 18.8616C20.5397 19.0967 20.3047 19.3314 20.0701 19.5664C20.045 19.5915 20.0214 19.618 19.9864 19.6552C20.1565 19.8225 20.3233 19.9863 20.4896 20.1506C20.5821 20.2419 20.6743 20.3335 20.7655 20.4261C20.9207 20.5837 20.9265 20.7926 20.7807 20.9357C20.6382 21.0757 20.4317 21.0699 20.2789 20.9185C20.0456 20.6873 19.8141 20.4541 19.5817 20.2219C19.5565 20.1967 19.5302 20.1727 19.4908 20.1351C19.4115 20.2179 19.336 20.2992 19.2579 20.3778C19.0748 20.5624 18.892 20.7472 18.7062 20.9289C18.5592 21.0726 18.3512 21.072 18.2124 20.9326C18.074 20.7937 18.074 20.5852 18.2187 20.4391C18.4776 20.1776 18.7397 19.9193 19.0069 19.6531C18.9759 19.6197 18.9506 19.5907 18.9235 19.5635C18.694 19.3335 18.4637 19.1043 18.2344 18.874C18.0772 18.7162 18.0685 18.5093 18.2116 18.3647C18.355 18.2198 18.5647 18.2258 18.7209 18.3817C18.9762 18.6368 19.2303 18.8931 19.4976 19.1616Z" fill="#5E7489" />
</svg>
