<svg width="37" height="37" viewBox="0 0 37 37" fill="none" xmlns="http://www.w3.org/2000/svg">
<rect width="36.6553" height="36.6553" rx="18.3276" fill="#1A4383"/>
<path d="M25.2572 13.9428H23.3032C23.2078 13.7589 23.1031 13.5772 22.9899 13.3999L23.5006 12.2507C23.5478 12.1445 23.5247 12.0201 23.4425 11.9379L22.3322 10.8276C22.25 10.7454 22.1256 10.7223 22.0194 10.7695L20.8695 11.2803C20.1806 10.8397 19.4298 10.5282 18.6336 10.3528L18.1816 9.18007C18.1398 9.07159 18.0355 9 17.9193 9H16.3504C16.2341 9 16.1299 9.07159 16.0881 9.18007L15.6956 10.1992L15.6362 10.3528C14.8399 10.5282 14.0891 10.8397 13.4003 11.2803L12.2503 10.7695C12.1441 10.7223 12.0197 10.7453 11.9375 10.8276L10.828 11.9381C10.7459 12.0203 10.7229 12.1444 10.7699 12.2506L11.2127 13.2498L11.2799 13.4007C10.8392 14.0897 10.5277 14.8404 10.3524 15.6366L9.18077 16.0875C9.07223 16.1293 9.00056 16.2335 9.00056 16.3499V17.9197C9.00056 18.036 9.07212 18.1402 9.18056 18.182L10.3525 18.6335C10.528 19.4313 10.8394 20.1825 11.2797 20.8707L10.7699 22.02C10.7229 22.1262 10.7459 22.2503 10.828 22.3325L11.9377 23.4422C12.0199 23.5243 12.1441 23.5473 12.2504 23.5001L13.2486 23.0568L13.3999 22.99C14.0895 23.4312 14.8404 23.7425 15.6363 23.917L16.0882 25.0896C16.1312 25.2012 16.2377 25.2697 16.3506 25.2697C16.3615 25.2697 16.3726 25.2688 16.3837 25.2675C16.389 26.2253 17.1701 27.0029 18.1297 27.0029H25.2572C26.2196 27.0029 27.0025 26.22 27.0025 25.2577V15.689C27.0024 14.7262 26.2195 13.9428 25.2572 13.9428ZM16.2198 23.8673L16.1052 23.5713C16.0704 23.4813 15.9918 23.4155 15.8971 23.3969C15.0674 23.2344 14.2888 22.9117 13.5827 22.4377C13.5027 22.384 13.4006 22.375 13.3124 22.414L12.1984 22.9081L11.3619 22.0716L11.7261 21.2498L11.8557 20.9597C11.8952 20.8713 11.8864 20.7687 11.8324 20.6884C11.359 19.9837 11.036 19.2043 10.8721 18.3717C10.8534 18.2769 10.7873 18.1982 10.697 18.1636L9.5627 17.7268V16.5429L10.4018 16.2202L10.6978 16.1056C10.7877 16.0708 10.8535 15.9924 10.8721 15.8978C11.0357 15.0674 11.3588 14.2885 11.8324 13.5831C11.8863 13.5028 11.8951 13.4004 11.8558 13.3121L11.3619 12.1989L12.1986 11.3616L13.3117 11.8562C13.4002 11.8956 13.5025 11.8867 13.5827 11.8328C14.2881 11.3593 15.0669 11.0362 15.8975 10.8725C15.992 10.8539 16.0704 10.7881 16.1052 10.6982L16.5434 9.56214H17.7263L18.1645 10.6982C18.1993 10.7881 18.2777 10.8539 18.3723 10.8725C19.2028 11.0362 19.9816 11.3593 20.687 11.8328C20.7672 11.8867 20.8696 11.8956 20.958 11.8562L22.0711 11.3616L22.9085 12.199L22.5436 13.0208L22.414 13.3108C22.3745 13.3992 22.3833 13.5016 22.4372 13.582C22.5164 13.7001 22.5914 13.8206 22.6622 13.9428H20.1851C19.3607 13.1532 18.2822 12.7198 17.1349 12.7198C14.7002 12.7198 12.7194 14.7006 12.7194 17.1353C12.7194 18.1488 13.0714 19.1389 13.7107 19.9233C14.3409 20.6965 15.2218 21.2386 16.1929 21.45C16.2155 21.4548 16.2617 21.4617 16.3833 21.4787V24.2918L16.2198 23.8673ZM16.3833 15.689V20.911C16.3478 20.9059 16.3188 20.9016 16.3071 20.8996C14.5538 20.5161 13.2815 18.9336 13.2815 17.1352C13.2815 15.0105 15.0101 13.2819 17.1348 13.2819C17.9174 13.2819 18.663 13.513 19.2949 13.9427H18.1296C17.1667 13.9428 16.3833 14.7262 16.3833 15.689ZM26.4403 25.2576C26.4403 25.9099 25.9095 26.4407 25.2572 26.4407H18.1296C17.4767 26.4407 16.9455 25.9099 16.9455 25.2576V15.689C16.9455 15.0361 17.4767 14.5049 18.1296 14.5049H25.2572C25.9096 14.5049 26.4403 15.0361 26.4403 15.689V25.2576ZM25.0957 15.6511H18.29C17.9119 15.6511 17.6043 15.9592 17.6043 16.3379V18.3104C17.6043 18.6885 17.9119 18.9962 18.29 18.9962H25.0957C25.4744 18.9962 25.7824 18.6885 25.7824 18.3104V16.3379C25.7824 15.9592 25.4744 15.6511 25.0957 15.6511ZM25.2203 18.3104C25.2203 18.3774 25.1632 18.434 25.0957 18.434H18.29C18.2231 18.434 18.1664 18.3774 18.1664 18.3104V16.3379C18.1664 16.2703 18.223 16.2133 18.29 16.2133H25.0957C25.1632 16.2133 25.2203 16.2703 25.2203 16.3379V18.3104ZM19.3256 19.655H18.2023C17.8726 19.655 17.6043 19.9233 17.6043 20.253V20.7414C17.6043 21.0712 17.8726 21.3395 18.2023 21.3395H19.3256C19.6554 21.3395 19.9237 21.0712 19.9237 20.7414V20.253C19.9237 19.9233 19.6554 19.655 19.3256 19.655ZM19.3615 20.7414C19.3615 20.7605 19.3448 20.7773 19.3256 20.7773H18.2023C18.1832 20.7773 18.1664 20.7605 18.1664 20.7414V20.253C18.1664 20.2339 18.1832 20.2171 18.2023 20.2171H19.3256C19.3448 20.2171 19.3615 20.2339 19.3615 20.253V20.7414ZM22.255 19.655H21.1318C20.802 19.655 20.5337 19.9233 20.5337 20.253V20.7414C20.5337 21.0712 20.802 21.3395 21.1318 21.3395H22.255C22.5848 21.3395 22.8531 21.0712 22.8531 20.7414V20.253C22.8531 19.9233 22.5848 19.655 22.255 19.655ZM22.2909 20.7414C22.2909 20.7605 22.2741 20.7773 22.255 20.7773H21.1317C21.1126 20.7773 21.0958 20.7605 21.0958 20.7414V20.253C21.0958 20.2339 21.1126 20.2171 21.1317 20.2171H22.255C22.2741 20.2171 22.2909 20.2339 22.2909 20.253V20.7414ZM25.1834 19.655H24.0611C23.7308 19.655 23.4621 19.9233 23.4621 20.253V20.7414C23.4621 21.0712 23.7308 21.3395 24.0611 21.3395H25.1834C25.5137 21.3395 25.7824 21.0712 25.7824 20.7414V20.253C25.7824 19.9233 25.5137 19.655 25.1834 19.655ZM25.2203 20.7414C25.2203 20.7609 25.2034 20.7773 25.1834 20.7773H24.0611C24.0418 20.7773 24.0242 20.7603 24.0242 20.7414V20.253C24.0242 20.2342 24.0418 20.2171 24.0611 20.2171H25.1834C25.2034 20.2171 25.2203 20.2336 25.2203 20.253V20.7414ZM19.3256 21.6564H18.2023C17.8726 21.6564 17.6043 21.9247 17.6043 22.2544V22.7428C17.6043 23.0732 17.8726 23.3419 18.2023 23.3419H19.3256C19.6554 23.3419 19.9237 23.0732 19.9237 22.7428V22.2544C19.9237 21.9247 19.6554 21.6564 19.3256 21.6564ZM19.3615 22.7428C19.3615 22.7622 19.3445 22.7797 19.3256 22.7797H18.2023C18.1836 22.7797 18.1664 22.7622 18.1664 22.7428V22.2544C18.1664 22.2354 18.1832 22.2186 18.2023 22.2186H19.3256C19.3448 22.2186 19.3615 22.2354 19.3615 22.2544V22.7428ZM22.255 21.6564H21.1318C20.802 21.6564 20.5337 21.9247 20.5337 22.2544V22.7428C20.5337 23.0732 20.802 23.3419 21.1318 23.3419H22.255C22.5848 23.3419 22.8531 23.0732 22.8531 22.7428V22.2544C22.8531 21.9247 22.5848 21.6564 22.255 21.6564ZM22.2909 22.7428C22.2909 22.7622 22.2738 22.7797 22.255 22.7797H21.1317C21.1129 22.7797 21.0958 22.7622 21.0958 22.7428V22.2544C21.0958 22.2354 21.1126 22.2186 21.1317 22.2186H22.255C22.2741 22.2186 22.2909 22.2354 22.2909 22.2544V22.7428ZM25.1834 21.6564H24.0611C23.7308 21.6564 23.4621 21.9247 23.4621 22.2544V22.7428C23.4621 23.0732 23.7308 23.3419 24.0611 23.3419H25.1834C25.5137 23.3419 25.7824 23.0732 25.7824 22.7428V22.2544C25.7824 21.9247 25.5137 21.6564 25.1834 21.6564ZM25.2203 22.7428C25.2203 22.7625 25.203 22.7797 25.1834 22.7797H24.0611C24.0418 22.7797 24.0242 22.7622 24.0242 22.7428V22.2544C24.0242 22.2357 24.0418 22.2186 24.0611 22.2186H25.1834C25.2034 22.2186 25.2203 22.235 25.2203 22.2544V22.7428ZM19.3256 23.6578H18.2023C17.8726 23.6578 17.6043 23.9266 17.6043 24.2569V24.7442C17.6043 25.0746 17.8726 25.3433 18.2023 25.3433H19.3256C19.6554 25.3433 19.9237 25.0746 19.9237 24.7442V24.2569C19.9237 23.9266 19.6554 23.6578 19.3256 23.6578ZM19.3615 24.7443C19.3615 24.7643 19.3451 24.7812 19.3256 24.7812H18.2023C18.1829 24.7812 18.1664 24.7643 18.1664 24.7443V24.2569C18.1664 24.2369 18.1829 24.22 18.2023 24.22H19.3256C19.3451 24.22 19.3615 24.2369 19.3615 24.2569V24.7443ZM22.255 23.6578H21.1318C20.802 23.6578 20.5337 23.9266 20.5337 24.2569V24.7442C20.5337 25.0746 20.802 25.3433 21.1318 25.3433H22.255C22.5848 25.3433 22.8531 25.0746 22.8531 24.7442V24.2569C22.8531 23.9266 22.5848 23.6578 22.255 23.6578ZM22.2909 24.7443C22.2909 24.7643 22.2745 24.7812 22.255 24.7812H21.1317C21.1122 24.7812 21.0958 24.7643 21.0958 24.7443V24.2569C21.0958 24.2369 21.1122 24.22 21.1317 24.22H22.255C22.2745 24.22 22.2909 24.2369 22.2909 24.2569V24.7443ZM25.1834 23.6578H24.0611C23.7308 23.6578 23.4621 23.9266 23.4621 24.2569V24.7442C23.4621 25.0746 23.7308 25.3433 24.0611 25.3433H25.1834C25.5137 25.3433 25.7824 25.0746 25.7824 24.7442V24.2569C25.7824 23.9266 25.5137 23.6578 25.1834 23.6578ZM25.2203 24.7443C25.2203 24.7646 25.2037 24.7812 25.1834 24.7812H24.0611C24.0414 24.7812 24.0242 24.7639 24.0242 24.7443V24.2569C24.0242 24.2372 24.0414 24.22 24.0611 24.22H25.1834C25.2037 24.22 25.2203 24.2366 25.2203 24.2569V24.7443Z" fill="white"/>
</svg>
