<svg width="7" height="11" viewBox="0 0 7 11" fill="none" xmlns="http://www.w3.org/2000/svg">
  <path d="M6.17456 5.47106C6.17512 5.37341 6.1564 5.27661 6.11947 5.1862C6.08254 5.0958 6.02813 5.01357 5.95937 4.94424L1.50734 0.492205C1.36762 0.352482 1.17811 0.273987 0.980517 0.273987C0.782924 0.273987 0.59342 0.352482 0.453697 0.492205C0.313975 0.631927 0.235474 0.821431 0.235474 1.01903C0.235474 1.21663 0.313975 1.40613 0.453697 1.54585L4.38632 5.47106L0.461106 9.39628C0.33955 9.53822 0.276027 9.72081 0.283239 9.90756C0.29045 10.0943 0.367864 10.2714 0.499986 10.4036C0.632107 10.5357 0.809253 10.6132 0.996009 10.6204C1.18276 10.6276 1.36534 10.5641 1.50734 10.4425L5.95937 5.99047C6.09645 5.85226 6.17374 5.66572 6.17456 5.47106Z" fill="#324455"/>
</svg>
