<svg width="11" height="7" viewBox="0 0 11 7" fill="none" xmlns="http://www.w3.org/2000/svg">
  <path d="M5.47106 6.17456C5.37341 6.17512 5.27661 6.1564 5.1862 6.11947C5.0958 6.08254 5.01357 6.02813 4.94424 5.95937L0.492205 1.50734C0.352482 1.36762 0.273987 1.17811 0.273987 0.980517C0.273987 0.782924 0.352482 0.59342 0.492205 0.453697C0.631927 0.313975 0.821431 0.235474 1.01903 0.235474C1.21663 0.235474 1.40613 0.313975 1.54585 0.453697L5.47106 4.38632L9.39628 0.461106C9.53822 0.33955 9.72081 0.276027 9.90756 0.283239C10.0943 0.29045 10.2714 0.367864 10.4036 0.499986C10.5357 0.632107 10.6132 0.809253 10.6204 0.996009C10.6276 1.18276 10.5641 1.36534 10.4425 1.50734L5.99047 5.95937C5.85226 6.09645 5.66572 6.17374 5.47106 6.17456Z" fill="#FFFFFF"/>
</svg>
