<svg width="36" height="36" viewBox="0 0 36 36" fill="none" xmlns="http://www.w3.org/2000/svg">
	<rect x="0.9375" y="0.279297" width="35.0488" height="35.0488" rx="17.5244" fill="#5E7489" />
	<g clip-path="url(#clip0_0_1)">
		<path d="M13.5 22.2207V19.2207V18.2207L19 21.7207V22.2207H13.5Z" fill="white" />
		<path d="M19.0913 22.0896V18.2675H20.1833L16.3612 14.4453L12.5391 18.2675H13.6311V19.2211" fill="white" />
		<path d="M19.0913 22.0896V18.2675H20.1833L16.3612 14.4453L12.5391 18.2675H13.6311V19.2211" stroke="#BFC7D0" stroke-width="0.527344" stroke-miterlimit="10" stroke-linecap="round" stroke-linejoin="round" />
		<path d="M17.4536 18.2676L15.2695 20.4517" stroke="#BFC7D0" stroke-width="0.527344" stroke-miterlimit="10" stroke-linecap="round" stroke-linejoin="round" />
		<path d="M15.2687 18.8127C15.5702 18.8127 15.8147 18.5683 15.8147 18.2667C15.8147 17.9652 15.5702 17.7207 15.2687 17.7207C14.9671 17.7207 14.7227 17.9652 14.7227 18.2667C14.7227 18.5683 14.9671 18.8127 15.2687 18.8127Z" stroke="#BFC7D0" stroke-width="0.527344" stroke-miterlimit="10" stroke-linecap="round" stroke-linejoin="round" />
		<path d="M17.4523 20.9963C17.7538 20.9963 17.9983 20.7519 17.9983 20.4503C17.9983 20.1488 17.7538 19.9043 17.4523 19.9043C17.1507 19.9043 16.9062 20.1488 16.9062 20.4503C16.9062 20.7519 17.1507 20.9963 17.4523 20.9963Z" stroke="#BFC7D0" stroke-width="0.527344" stroke-miterlimit="10" stroke-linecap="round" stroke-linejoin="round" />
		<path d="M17.998 16.0823V14.9902H19.0901V17.1743" stroke="#BFC7D0" stroke-width="0.527344" stroke-miterlimit="10" stroke-linecap="round" stroke-linejoin="round" />
		<path d="M12.5391 22.0898H19.8237" stroke="#BFC7D0" stroke-width="0.527344" stroke-miterlimit="10" stroke-linecap="round" stroke-linejoin="round" />
		<path d="M13.6309 20.4512V22.0892" stroke="#BFC7D0" stroke-width="0.527344" stroke-miterlimit="10" stroke-linecap="round" stroke-linejoin="round" />
		<path d="M22.9141 24.8184V25.3644" stroke="#BFC7D0" stroke-width="0.527344" stroke-miterlimit="10" stroke-linecap="round" stroke-linejoin="round" />
		<path d="M22.9129 26.4566C24.7222 26.4566 26.189 24.9898 26.189 23.1804C26.189 21.3711 24.7222 19.9043 22.9129 19.9043C21.1035 19.9043 19.6367 21.3711 19.6367 23.1804C19.6367 24.9898 21.1035 26.4566 22.9129 26.4566Z" fill="white" stroke="#BFC7D0" stroke-width="0.527344" stroke-miterlimit="10" stroke-linecap="round" stroke-linejoin="round" />
		<path d="M22.9141 21.5421V20.9961" stroke="#BFC7D0" stroke-width="0.527344" stroke-miterlimit="10" stroke-linecap="round" stroke-linejoin="round" />
		<path d="M22.0938 24.0001C22.0938 24.4524 22.4604 24.8191 22.9128 24.8191C23.3651 24.8191 23.7318 24.4524 23.7318 24.0001C23.7318 23.5477 23.3651 23.181 22.9128 23.181C22.4604 23.181 22.0938 22.8144 22.0938 22.362C22.0938 21.9096 22.4604 21.543 22.9128 21.543C23.3651 21.543 23.7318 21.9096 23.7318 22.362" stroke="#BFC7D0" stroke-width="0.527344" stroke-miterlimit="10" stroke-linecap="round" stroke-linejoin="round" />
		<path d="M20.3786 10.2715C19.5544 9.44738 18.4367 8.98438 17.2712 8.98438H16.3613H16.8063C18.0683 8.98438 19.0914 10.0075 19.0914 11.2695V12.2792C19.0914 12.5704 19.3275 12.8065 19.6188 12.8065H20.6284C21.8905 12.8065 22.9136 13.8296 22.9136 15.0917V15.5366V14.6268C22.9136 13.4613 22.4506 12.3435 21.6264 11.5194L20.3786 10.2715Z" fill="white" stroke="#BFC7D0" stroke-width="0.527344" stroke-miterlimit="10" stroke-linecap="round" stroke-linejoin="round" />
		<path d="M14.0117 12.2598H19.0914" stroke="#BFC7D0" stroke-width="0.527344" stroke-miterlimit="10" stroke-linecap="round" stroke-linejoin="round" />
		<path d="M18.9986 10.623H11.4473V12.2611H12.7814" stroke="#BFC7D0" stroke-width="0.527344" stroke-miterlimit="10" stroke-linecap="round" stroke-linejoin="round" />
		<path d="M17.2707 8.98438H10.3359C10.0447 8.98438 9.80859 9.22048 9.80859 9.51172V25.9297C9.80859 26.2209 10.0447 26.457 10.3359 26.457H22.3857C22.4377 26.457 22.4879 26.4495 22.5354 26.4355" stroke="#BFC7D0" stroke-width="0.527344" stroke-miterlimit="10" stroke-linecap="round" stroke-linejoin="round" />
		<path d="M22.9141 16.2513V14.627" stroke="#BFC7D0" stroke-width="0.527344" stroke-miterlimit="10" stroke-linecap="round" stroke-linejoin="round" />
		<path d="M22.9141 19.9056V17.4824" stroke="#BFC7D0" stroke-width="0.527344" stroke-miterlimit="10" stroke-linecap="round" stroke-linejoin="round" />
	</g>
	<defs>
		<clipPath id="clip0_0_1">
			<rect width="18" height="18" fill="white" transform="translate(9 8.7207)" />
		</clipPath>
	</defs>
</svg>
