<svg width="37" height="37" viewBox="0 0 37 37" fill="none" xmlns="http://www.w3.org/2000/svg">
<rect width="36.6553" height="36.6553" rx="18.3276" fill="#1A4383"/>
<path d="M25.2576 13.9428H23.3036C23.2082 13.7589 23.1035 13.5772 22.9903 13.3999L23.501 12.2507C23.5482 12.1445 23.5251 12.0201 23.4429 11.9379L22.3326 10.8276C22.2504 10.7454 22.1261 10.7223 22.0198 10.7695L20.8699 11.2803C20.181 10.8397 19.4302 10.5282 18.634 10.3528L18.182 9.18007C18.1402 9.07159 18.036 9 17.9197 9H16.3508C16.2346 9 16.1303 9.07159 16.0885 9.18007L15.696 10.1992L15.6366 10.3528C14.8403 10.5282 14.0896 10.8397 13.4007 11.2803L12.2507 10.7695C12.1445 10.7223 12.0201 10.7453 11.9379 10.8276L10.8284 11.9381C10.7464 12.0203 10.7233 12.1444 10.7703 12.2506L11.2131 13.2498L11.2803 13.4007C10.8396 14.0897 10.5281 14.8404 10.3528 15.6366L9.18118 16.0875C9.07264 16.1293 9.00098 16.2335 9.00098 16.3499V17.9197C9.00098 18.036 9.07253 18.1402 9.18097 18.182L10.3529 18.6335C10.5284 19.4313 10.8398 20.1825 11.2802 20.8707L10.7703 22.02C10.7233 22.1262 10.7464 22.2503 10.8284 22.3325L11.9381 23.4422C12.0204 23.5243 12.1446 23.5473 12.2508 23.5001L13.249 23.0568L13.4003 22.99C14.0899 23.4312 14.8408 23.7425 15.6367 23.917L16.0886 25.0896C16.1316 25.2012 16.2381 25.2697 16.351 25.2697C16.3619 25.2697 16.373 25.2688 16.3841 25.2675C16.3894 26.2253 17.1705 27.0029 18.1301 27.0029H25.2576C26.22 27.0029 27.003 26.22 27.003 25.2577V15.689C27.0029 14.7262 26.2199 13.9428 25.2576 13.9428ZM16.2202 23.8673L16.1056 23.5713C16.0708 23.4813 15.9922 23.4155 15.8976 23.3969C15.0678 23.2344 14.2892 22.9117 13.5831 22.4377C13.5031 22.384 13.401 22.375 13.3129 22.414L12.1988 22.9081L11.3623 22.0716L11.7265 21.2498L11.8561 20.9597C11.8956 20.8713 11.8868 20.7687 11.8328 20.6884C11.3594 19.9837 11.0364 19.2043 10.8725 18.3717C10.8539 18.2769 10.7877 18.1982 10.6974 18.1636L9.56312 17.7268V16.5429L10.4022 16.2202L10.6982 16.1056C10.7881 16.0708 10.8539 15.9924 10.8725 15.8978C11.0361 15.0674 11.3592 14.2885 11.8328 13.5831C11.8867 13.5028 11.8955 13.4004 11.8562 13.3121L11.3623 12.1989L12.199 11.3616L13.3121 11.8562C13.4006 11.8956 13.5029 11.8867 13.5831 11.8328C14.2885 11.3593 15.0673 11.0362 15.8979 10.8725C15.9924 10.8539 16.0708 10.7881 16.1056 10.6982L16.5438 9.56214H17.7267L18.1649 10.6982C18.1997 10.7881 18.2781 10.8539 18.3727 10.8725C19.2032 11.0362 19.982 11.3593 20.6874 11.8328C20.7676 11.8867 20.87 11.8956 20.9584 11.8562L22.0716 11.3616L22.9089 12.199L22.544 13.0208L22.4144 13.3108C22.3749 13.3992 22.3837 13.5016 22.4376 13.582C22.5168 13.7001 22.5919 13.8206 22.6626 13.9428H20.1855C19.3611 13.1532 18.2826 12.7198 17.1353 12.7198C14.7006 12.7198 12.7198 14.7006 12.7198 17.1353C12.7198 18.1488 13.0719 19.1389 13.7111 19.9233C14.3413 20.6965 15.2222 21.2386 16.1933 21.45C16.216 21.4548 16.2622 21.4617 16.3837 21.4787V24.2918L16.2202 23.8673ZM16.3837 15.689V20.911C16.3482 20.9059 16.3192 20.9016 16.3075 20.8996C14.5542 20.5161 13.2819 18.9336 13.2819 17.1352C13.2819 15.0105 15.0105 13.2819 17.1352 13.2819C17.9178 13.2819 18.6635 13.513 19.2953 13.9427H18.13C17.1671 13.9428 16.3837 14.7262 16.3837 15.689ZM26.4407 25.2576C26.4407 25.9099 25.9099 26.4407 25.2576 26.4407H18.13C17.4771 26.4407 16.9459 25.9099 16.9459 25.2576V15.689C16.9459 15.0361 17.4771 14.5049 18.13 14.5049H25.2576C25.91 14.5049 26.4407 15.0361 26.4407 15.689V25.2576ZM25.0961 15.6511H18.2905C17.9123 15.6511 17.6047 15.9592 17.6047 16.3379V18.3104C17.6047 18.6885 17.9123 18.9962 18.2905 18.9962H25.0961C25.4748 18.9962 25.7829 18.6885 25.7829 18.3104V16.3379C25.7829 15.9592 25.4748 15.6511 25.0961 15.6511ZM25.2207 18.3104C25.2207 18.3774 25.1637 18.434 25.0961 18.434H18.2905C18.2235 18.434 18.1669 18.3774 18.1669 18.3104V16.3379C18.1669 16.2703 18.2234 16.2133 18.2905 16.2133H25.0961C25.1637 16.2133 25.2207 16.2703 25.2207 16.3379V18.3104ZM19.3261 19.655H18.2028C17.873 19.655 17.6047 19.9233 17.6047 20.253V20.7414C17.6047 21.0712 17.873 21.3395 18.2028 21.3395H19.3261C19.6558 21.3395 19.9241 21.0712 19.9241 20.7414V20.253C19.9241 19.9233 19.6558 19.655 19.3261 19.655ZM19.362 20.7414C19.362 20.7605 19.3452 20.7773 19.3261 20.7773H18.2028C18.1836 20.7773 18.1669 20.7605 18.1669 20.7414V20.253C18.1669 20.2339 18.1836 20.2171 18.2028 20.2171H19.3261C19.3452 20.2171 19.362 20.2339 19.362 20.253V20.7414ZM22.2555 19.655H21.1322C20.8024 19.655 20.5341 19.9233 20.5341 20.253V20.7414C20.5341 21.0712 20.8024 21.3395 21.1322 21.3395H22.2555C22.5852 21.3395 22.8535 21.0712 22.8535 20.7414V20.253C22.8535 19.9233 22.5852 19.655 22.2555 19.655ZM22.2913 20.7414C22.2913 20.7605 22.2745 20.7773 22.2554 20.7773H21.1321C21.113 20.7773 21.0962 20.7605 21.0962 20.7414V20.253C21.0962 20.2339 21.113 20.2171 21.1321 20.2171H22.2554C22.2745 20.2171 22.2913 20.2339 22.2913 20.253V20.7414ZM25.1838 19.655H24.0615C23.7312 19.655 23.4625 19.9233 23.4625 20.253V20.7414C23.4625 21.0712 23.7312 21.3395 24.0615 21.3395H25.1838C25.5141 21.3395 25.7829 21.0712 25.7829 20.7414V20.253C25.7829 19.9233 25.5141 19.655 25.1838 19.655ZM25.2207 20.7414C25.2207 20.7609 25.2038 20.7773 25.1838 20.7773H24.0615C24.0422 20.7773 24.0246 20.7603 24.0246 20.7414V20.253C24.0246 20.2342 24.0422 20.2171 24.0615 20.2171H25.1838C25.2038 20.2171 25.2207 20.2336 25.2207 20.253V20.7414ZM19.3261 21.6564H18.2028C17.873 21.6564 17.6047 21.9247 17.6047 22.2544V22.7428C17.6047 23.0732 17.873 23.3419 18.2028 23.3419H19.3261C19.6558 23.3419 19.9241 23.0732 19.9241 22.7428V22.2544C19.9241 21.9247 19.6558 21.6564 19.3261 21.6564ZM19.362 22.7428C19.362 22.7622 19.3449 22.7797 19.3261 22.7797H18.2028C18.184 22.7797 18.1669 22.7622 18.1669 22.7428V22.2544C18.1669 22.2354 18.1836 22.2186 18.2028 22.2186H19.3261C19.3452 22.2186 19.362 22.2354 19.362 22.2544V22.7428ZM22.2555 21.6564H21.1322C20.8024 21.6564 20.5341 21.9247 20.5341 22.2544V22.7428C20.5341 23.0732 20.8024 23.3419 21.1322 23.3419H22.2555C22.5852 23.3419 22.8535 23.0732 22.8535 22.7428V22.2544C22.8535 21.9247 22.5852 21.6564 22.2555 21.6564ZM22.2913 22.7428C22.2913 22.7622 22.2742 22.7797 22.2554 22.7797H21.1321C21.1134 22.7797 21.0962 22.7622 21.0962 22.7428V22.2544C21.0962 22.2354 21.113 22.2186 21.1321 22.2186H22.2554C22.2745 22.2186 22.2913 22.2354 22.2913 22.2544V22.7428ZM25.1838 21.6564H24.0615C23.7312 21.6564 23.4625 21.9247 23.4625 22.2544V22.7428C23.4625 23.0732 23.7312 23.3419 24.0615 23.3419H25.1838C25.5141 23.3419 25.7829 23.0732 25.7829 22.7428V22.2544C25.7829 21.9247 25.5141 21.6564 25.1838 21.6564ZM25.2207 22.7428C25.2207 22.7625 25.2035 22.7797 25.1838 22.7797H24.0615C24.0422 22.7797 24.0246 22.7622 24.0246 22.7428V22.2544C24.0246 22.2357 24.0422 22.2186 24.0615 22.2186H25.1838C25.2038 22.2186 25.2207 22.235 25.2207 22.2544V22.7428ZM19.3261 23.6578H18.2028C17.873 23.6578 17.6047 23.9266 17.6047 24.2569V24.7442C17.6047 25.0746 17.873 25.3433 18.2028 25.3433H19.3261C19.6558 25.3433 19.9241 25.0746 19.9241 24.7442V24.2569C19.9241 23.9266 19.6558 23.6578 19.3261 23.6578ZM19.362 24.7443C19.362 24.7643 19.3455 24.7812 19.3261 24.7812H18.2028C18.1833 24.7812 18.1669 24.7643 18.1669 24.7443V24.2569C18.1669 24.2369 18.1833 24.22 18.2028 24.22H19.3261C19.3455 24.22 19.362 24.2369 19.362 24.2569V24.7443ZM22.2555 23.6578H21.1322C20.8024 23.6578 20.5341 23.9266 20.5341 24.2569V24.7442C20.5341 25.0746 20.8024 25.3433 21.1322 25.3433H22.2555C22.5852 25.3433 22.8535 25.0746 22.8535 24.7442V24.2569C22.8535 23.9266 22.5852 23.6578 22.2555 23.6578ZM22.2913 24.7443C22.2913 24.7643 22.2749 24.7812 22.2554 24.7812H21.1321C21.1126 24.7812 21.0962 24.7643 21.0962 24.7443V24.2569C21.0962 24.2369 21.1126 24.22 21.1321 24.22H22.2554C22.2749 24.22 22.2913 24.2369 22.2913 24.2569V24.7443ZM25.1838 23.6578H24.0615C23.7312 23.6578 23.4625 23.9266 23.4625 24.2569V24.7442C23.4625 25.0746 23.7312 25.3433 24.0615 25.3433H25.1838C25.5141 25.3433 25.7829 25.0746 25.7829 24.7442V24.2569C25.7829 23.9266 25.5141 23.6578 25.1838 23.6578ZM25.2207 24.7443C25.2207 24.7646 25.2041 24.7812 25.1838 24.7812H24.0615C24.0418 24.7812 24.0246 24.7639 24.0246 24.7443V24.2569C24.0246 24.2372 24.0418 24.22 24.0615 24.22H25.1838C25.2041 24.22 25.2207 24.2366 25.2207 24.2569V24.7443Z" fill="white"/>
</svg>
