<svg xmlns="http://www.w3.org/2000/svg" width="37" height="38" viewBox="0 0 37 38" fill="none">
	<rect y="0.720703" width="36.6553" height="36.6553" rx="18.3276" fill="#1A4383" />
	<mask id="mask0_579_1635" style="mask-type:luminance" maskUnits="userSpaceOnUse" x="9" y="10" width="18" height="19">
		<path d="M9 10.4062H27V28.4062H9V10.4062Z" fill="white" />
	</mask>
	<g mask="url(#mask0_579_1635)">
		<path d="M9.64453 24.1426H17.9902C18.0899 24.1426 18.1709 24.0615 18.1709 23.9619V12.3613C18.1709 12.2617 18.0899 12.1807 17.9902 12.1807H9.64453C9.54489 12.1807 9.46387 12.2617 9.46387 12.3613V23.9619L9.47754 24.0322C9.50482 24.0972 9.56965 24.1426 9.64453 24.1426Z" fill="#1A4383" stroke="#BFC7D0" stroke-width="0.4" />
		<path d="M26.4631 26.8328H17.029C16.8782 26.8328 16.7559 26.7105 16.7559 26.5596V21.1732C16.7559 21.0223 16.8782 20.9 17.029 20.9H26.4631C26.614 20.9 26.7363 21.0223 26.7363 21.1732V26.5596C26.7363 26.7105 26.614 26.8328 26.4631 26.8328Z" fill="#1A4383" />
		<path d="M26.4639 20.9H25.5146C25.6655 20.9 25.7878 21.0223 25.7878 21.1732V26.5596C25.7878 26.7105 25.6655 26.8328 25.5147 26.8328H26.4639C26.6147 26.8328 26.737 26.7105 26.737 26.5596V21.1732C26.737 21.0223 26.6147 20.9 26.4639 20.9Z" fill="#1A4383" />
		<path d="M26.7362 22.6936V21.1719C26.7362 21.0211 26.6139 20.8988 26.4631 20.8988H24.9414C24.9414 21.89 25.745 22.6936 26.7362 22.6936Z" fill="#BFC7D0" />
		<path d="M18.5507 20.8988H17.029C16.8781 20.8988 16.7559 21.0211 16.7559 21.1719V22.6936C17.7471 22.6936 18.5507 21.89 18.5507 20.8988Z" fill="#BFC7D0" />
		<path d="M16.7559 25.0379V26.5596C16.7559 26.7105 16.8782 26.8328 17.029 26.8328H18.5507C18.5507 25.8415 17.7471 25.0379 16.7559 25.0379Z" fill="#BFC7D0" />
		<path d="M26.7362 26.5596V25.0379C25.745 25.0379 24.9414 25.8415 24.9414 26.8328H26.4631C26.6139 26.8328 26.7362 26.7105 26.7362 26.5596Z" fill="#BFC7D0" />
		<path d="M24.9821 16.7404H24.3548C24.2755 16.7404 24.2112 16.6761 24.2112 16.5968V13.2657C24.2112 13.1389 24.1085 13.0362 23.9818 13.0362H22.2818C22.1551 13.0362 22.0524 13.1389 22.0524 13.2657V16.5968C22.0524 16.6761 21.9881 16.7404 21.9088 16.7404H21.2816C21.0719 16.7404 20.9599 16.9875 21.0981 17.1452L22.9483 19.2569C23.0455 19.3678 23.2181 19.3678 23.3153 19.2569L25.1656 17.1452C25.3038 16.9875 25.1918 16.7404 24.9821 16.7404Z" fill="white" />
		<path d="M9.26367 15.1691V23.9624C9.26367 24.1726 9.43383 24.3428 9.64406 24.3428H16.7558" stroke="#BFC7D0" stroke-width="0.4" stroke-miterlimit="10" stroke-linecap="round" stroke-linejoin="round" />
		<path d="M9.26367 13.9375V12.3601C9.26367 12.1502 9.43383 11.9797 9.64406 11.9797H17.9905C18.2008 11.9797 18.371 12.1502 18.371 12.3601V20.8992" stroke="#BFC7D0" stroke-width="0.4" stroke-miterlimit="10" stroke-linecap="round" stroke-linejoin="round" />
		<path d="M21.2128 26.8328H17.029C16.8782 26.8328 16.7559 26.7105 16.7559 26.5596V21.1732C16.7559 21.0223 16.8782 20.9 17.029 20.9H26.4631C26.614 20.9 26.7363 21.0223 26.7363 21.1732V26.5596C26.7363 26.7105 26.614 26.8328 26.4631 26.8328H22.4432" fill="white" />
		<path d="M21.2128 26.8328H17.029C16.8782 26.8328 16.7559 26.7105 16.7559 26.5596V21.1732C16.7559 21.0223 16.8782 20.9 17.029 20.9H26.4631C26.614 20.9 26.7363 21.0223 26.7363 21.1732V26.5596C26.7363 26.7105 26.614 26.8328 26.4631 26.8328H22.4432" stroke="#BFC7D0" stroke-width="0.4" stroke-miterlimit="10" stroke-linecap="round" stroke-linejoin="round" />
		<path d="M24.9414 20.8988C24.9414 21.89 25.745 22.6936 26.7362 22.6936" stroke="#BFC7D0" stroke-width="0.4" stroke-miterlimit="10" stroke-linecap="round" stroke-linejoin="round" />
		<path d="M22.3722 23.0133C22.3722 23.0133 21.9869 22.6895 21.5326 22.8263C21.1154 22.952 21.057 23.433 21.3588 23.6298C21.3588 23.6298 21.655 23.7619 21.9835 23.883C22.7742 24.1747 22.4336 24.9397 21.7971 24.9397C21.4783 24.9397 21.2108 24.8001 21.0488 24.6214" stroke="#BFC7D0" stroke-width="0.4" stroke-miterlimit="10" stroke-linecap="round" stroke-linejoin="round" />
		<path d="M21.7461 25.2161V24.9381" stroke="#BFC7D0" stroke-width="0.4" stroke-miterlimit="10" stroke-linecap="round" stroke-linejoin="round" />
		<path d="M21.7461 22.7927V22.5154" stroke="#BFC7D0" stroke-width="0.4" stroke-miterlimit="10" stroke-linecap="round" stroke-linejoin="round" />
		<path d="M16.7559 22.6936C17.7471 22.6936 18.5507 21.89 18.5507 20.8988" stroke="#BFC7D0" stroke-width="0.4" stroke-miterlimit="10" stroke-linecap="round" stroke-linejoin="round" />
		<path d="M18.5507 26.8328C18.5507 25.8415 17.7471 25.0379 16.7559 25.0379" stroke="#BFC7D0" stroke-width="0.4" stroke-miterlimit="10" stroke-linecap="round" stroke-linejoin="round" />
		<path d="M26.7362 25.0379C25.745 25.0379 24.9414 25.8415 24.9414 26.8328" stroke="#BFC7D0" stroke-width="0.4" stroke-miterlimit="10" stroke-linecap="round" stroke-linejoin="round" />
		<path d="M15.135 14.1371L12.502 18.6978" stroke="#BFC7D0" stroke-width="0.4" stroke-miterlimit="10" stroke-linecap="round" stroke-linejoin="round" />
		<path d="M15.8076 17.7664C15.8076 18.1253 15.5167 18.4163 15.1577 18.4163C14.7988 18.4163 14.5078 18.1253 14.5078 17.7664C14.5078 17.4075 14.7988 17.1165 15.1577 17.1165C15.5167 17.1165 15.8076 17.4075 15.8076 17.7664Z" stroke="#BFC7D0" stroke-width="0.4" stroke-miterlimit="10" stroke-linecap="round" stroke-linejoin="round" />
		<path d="M13.1269 15.0696C13.1269 15.4285 12.836 15.7195 12.477 15.7195C12.1181 15.7195 11.8271 15.4285 11.8271 15.0696C11.8271 14.7107 12.1181 14.4197 12.477 14.4197C12.836 14.4197 13.1269 14.7107 13.1269 15.0696Z" stroke="#BFC7D0" stroke-width="0.4" stroke-miterlimit="10" stroke-linecap="round" stroke-linejoin="round" />
		<path d="M12.4766 20.5925H15.1576" stroke="#BFC7D0" stroke-width="0.4" stroke-miterlimit="10" stroke-linecap="round" stroke-linejoin="round" />
		<path d="M12.4766 22.1838H15.1576" stroke="#BFC7D0" stroke-width="0.4" stroke-miterlimit="10" stroke-linecap="round" stroke-linejoin="round" />
		<path d="M24.9821 16.7404H24.3548C24.2755 16.7404 24.2112 16.6761 24.2112 16.5968V13.2657C24.2112 13.1389 24.1085 13.0362 23.9818 13.0362H22.2818C22.1551 13.0362 22.0524 13.1389 22.0524 13.2657V16.5968C22.0524 16.6761 21.9881 16.7404 21.9088 16.7404H21.2816C21.0719 16.7404 20.9599 16.9875 21.0981 17.1452L22.9483 19.2569C23.0455 19.3678 23.2181 19.3678 23.3153 19.2569L25.1656 17.1452C25.3038 16.9875 25.1918 16.7404 24.9821 16.7404Z" stroke="#BFC7D0" stroke-width="0.4" stroke-miterlimit="10" stroke-linecap="round" stroke-linejoin="round" />
	</g>
</svg>
