<svg xmlns="http://www.w3.org/2000/svg" width="36" height="36" viewBox="0 0 36 36" fill="none">
	<rect x="0.9375" y="0.863281" width="35.0488" height="35.0488" rx="17.5244" fill="#5E7489" />
	<path d="M14.3413 17.6567C14.7517 17.6567 15.0859 17.3226 15.0859 16.9131C15.0859 16.5037 14.7517 16.1695 14.3413 16.1695C13.9318 16.1695 13.5977 16.5037 13.5977 16.9131C13.5977 17.3226 13.9318 17.6567 14.3413 17.6567Z" stroke="#BFC7D0" stroke-width="0.54326" stroke-miterlimit="10" stroke-linecap="round" stroke-linejoin="round" />
	<path d="M10.8325 14.3493H9.58338C9.44643 14.3493 9.33398 14.4534 9.33398 14.5803V22.7756C9.33398 22.9024 9.44643 23.0066 9.58338 23.0066H22.9112" stroke="#BFC7D0" stroke-width="0.54326" stroke-miterlimit="10" stroke-linecap="round" stroke-linejoin="round" />
	<path d="M17.4191 12.3667H10.965C10.832 12.3667 10.7236 12.476 10.7236 12.6091V21.2158C10.7236 21.3499 10.832 21.4592 10.965 21.4592H21.4156M25.6028 18.6684V12.6091C25.6028 12.476 25.4945 12.3667 25.3625 12.3667H18.6784" fill="#5E7489" />
	<path d="M17.4191 12.3667H10.965C10.832 12.3667 10.7236 12.476 10.7236 12.6091V21.2158C10.7236 21.3499 10.832 21.4592 10.965 21.4592H21.4156H25.6028V18.6684V12.6091C25.6028 12.476 25.4945 12.3667 25.3625 12.3667H18.6784H17.4191Z" stroke="#BFC7D0" stroke-width="0.54326" stroke-miterlimit="10" stroke-linecap="round" stroke-linejoin="round" />
	<path d="M18.6767 19.9861H21.7521H18.6767ZM23.9695 19.819V16.9137V15.2428C23.9695 15.1768 23.9623 15.1614 23.8798 15.1562C23.2496 15.1139 22.7412 14.6281 22.6618 14.0083C22.6463 13.8825 22.5627 13.8412 22.44 13.8412H18.162H13.883C13.7613 13.8412 13.6767 13.8825 13.6613 14.0083C13.5818 14.6281 13.0734 15.1139 12.4432 15.1562C12.3618 15.1614 12.3535 15.1768 12.3535 15.2428V16.9137V18.5844C12.3535 18.6505 12.3618 18.6659 12.4432 18.6711C13.0734 18.7134 13.5818 19.1992 13.6613 19.819C13.6767 19.9448 13.7613 19.9861 13.883 19.9861H17.4174" fill="#5E7489" />
	<path d="M18.6767 19.9861H21.7521M23.9695 19.819V16.9137V15.2428C23.9695 15.1768 23.9623 15.1614 23.8798 15.1562C23.2496 15.1139 22.7412 14.6281 22.6618 14.0083C22.6463 13.8825 22.5627 13.8412 22.44 13.8412H18.162H13.883C13.7613 13.8412 13.6767 13.8825 13.6613 14.0083C13.5818 14.6281 13.0734 15.1139 12.4432 15.1562C12.3618 15.1614 12.3535 15.1768 12.3535 15.2428V16.9137V18.5844C12.3535 18.6505 12.3618 18.6659 12.4432 18.6711C13.0734 18.7134 13.5818 19.1992 13.6613 19.819C13.6767 19.9448 13.7613 19.9861 13.883 19.9861H17.4174" stroke="#BFC7D0" stroke-width="0.54326" stroke-miterlimit="10" stroke-linecap="round" stroke-linejoin="round" />
	<path d="M24.374 24.3242C26.0046 24.3242 27.335 22.9948 27.335 21.3642C27.335 19.7326 26.0046 18.4031 24.374 18.4031C22.7435 18.4031 21.4141 19.7326 21.4141 21.3642C21.4141 22.9948 22.7435 24.3242 24.374 24.3242Z" fill="white" stroke="#BFC7D0" stroke-width="0.54326" stroke-miterlimit="10" stroke-linecap="round" stroke-linejoin="round" />
	<path d="M24.373 22.2896V20.4382" stroke="#BFC7D0" stroke-width="0.54326" stroke-miterlimit="10" stroke-linecap="round" stroke-linejoin="round" />
	<path d="M23.4482 21.363H25.2995" stroke="#BFC7D0" stroke-width="0.54326" stroke-miterlimit="10" stroke-linecap="round" stroke-linejoin="round" />
	<path d="M21.9828 17.6567C22.3923 17.6567 22.7264 17.3226 22.7264 16.9131C22.7264 16.5037 22.3923 16.1695 21.9828 16.1695C21.5734 16.1695 21.2393 16.5037 21.2393 16.9131C21.2393 17.3226 21.5734 17.6567 21.9828 17.6567Z" fill="#5E7489" stroke="#BFC7D0" stroke-width="0.54326" stroke-miterlimit="10" stroke-linecap="round" stroke-linejoin="round" />
	<path d="M18.1629 18.6377C19.1117 18.6377 19.8863 17.8642 19.8863 16.9143C19.8863 15.9644 19.1117 15.1909 18.1629 15.1909C17.213 15.1909 16.4385 15.9644 16.4385 16.9143C16.4385 17.8642 17.213 18.6377 18.1629 18.6377Z" fill="#5E7489" stroke="#BFC7D0" stroke-width="0.54326" stroke-miterlimit="10" stroke-linecap="round" stroke-linejoin="round" />
</svg>
