<svg xmlns="http://www.w3.org/2000/svg" width="139" height="159" viewBox="0 0 139 159" fill="none">
  <path d="M133.013 153.568C133.013 156.063 104.247 158.085 68.762 158.085C33.2776 158.085 4.51123 156.062 4.51123 153.568C4.51123 151.073 33.2776 149.051 68.762 149.051C104.247 149.051 133.013 151.073 133.013 153.568Z" fill="#5F7589"/>
  <path d="M136 63.4958L136.206 63.3446H135.8L70.6063 14.3326L5.41182 63.3446H5.00586L5.2137 63.494L5.00586 63.6506H5.4304L71.1865 110.948L135.788 63.6506H136.206L136 63.4958Z" fill="#D5DBE0" stroke="black" stroke-width="0.591476" stroke-miterlimit="10" stroke-linecap="round" stroke-linejoin="round"/>
  <path d="M113.556 19.235H25.5542V128.463H113.556V19.235Z" fill="white" stroke="black" stroke-width="0.591476" stroke-miterlimit="10" stroke-linecap="round" stroke-linejoin="round"/>
  <path d="M88.3213 48.9663C88.3213 61.6217 82.5689 68.9077 76.6246 68.9077C73.5565 68.9077 71.7673 67.374 71.5754 64.5615C70.2973 67.374 68.1243 68.9713 64.9925 68.9077C60.1988 68.844 58.537 64.8171 59.1127 59.1284L59.8159 52.7366C60.3907 46.9206 63.0114 43.2776 67.7413 43.4049C70.6175 43.4049 72.4713 44.9385 73.2381 47.6237L73.6856 43.6605H78.0317L76.1143 62.0037C75.9223 63.4737 76.3699 64.7517 77.9681 64.7517C82.8899 64.7517 84.5509 55.3563 84.4872 49.0927C84.4872 40.2086 80.333 34.4562 70.7457 34.4562C57.963 34.4562 52.0187 45.0659 52.0187 59.3832C52.0187 70.4404 57.0679 77.0878 68.1888 77.0878C72.6632 77.0878 76.7537 76.1928 80.7797 73.061L80.3958 77.4708C76.4972 80.155 72.4067 80.9218 67.9323 80.9218C53.8716 80.9218 47.7354 72.2933 47.7354 59.1267C47.7354 43.9152 55.0213 30.5567 70.8722 30.5567C83.7195 30.5594 88.3213 38.4202 88.3213 48.9663ZM64.0974 53.185L63.5225 58.9374C63.1387 62.2611 64.162 64.6261 67.1656 64.6898C70.1054 64.7535 71.7036 62.453 72.0866 59.0011L72.726 52.8649C73.0453 49.8613 71.8309 47.7519 69.0193 47.7519C66.0786 47.6882 64.4813 49.7331 64.0974 53.185Z" fill="#FF5B02"/>
  <path d="M5.00586 63.3446V139.395H136.206V63.3446L70.6063 101.37L5.00586 63.3446Z" fill="#D5DBE0" stroke="black" stroke-width="0.591476" stroke-miterlimit="10" stroke-linecap="round" stroke-linejoin="round"/>
  <path d="M5.00586 139.395L70.6063 101.37L136.206 139.395" stroke="black" stroke-width="0.591476" stroke-miterlimit="10" stroke-linecap="round" stroke-linejoin="round"/>
  <path d="M5.99854 41.5705L12.5734 46.5676" stroke="black" stroke-width="0.591476" stroke-miterlimit="10" stroke-linecap="round" stroke-linejoin="round"/>
  <path d="M0.568359 37.4437L3.24733 39.4788" stroke="black" stroke-width="0.591476" stroke-miterlimit="10" stroke-linecap="round" stroke-linejoin="round"/>
  <path d="M9.21191 5.26971L20.2568 15.8343" stroke="black" stroke-width="0.591476" stroke-miterlimit="10" stroke-linecap="round" stroke-linejoin="round"/>
  <path d="M43.835 5.41388L45.2271 9.59196" stroke="black" stroke-width="0.591476" stroke-miterlimit="10" stroke-linecap="round" stroke-linejoin="round"/>
  <path d="M42.3467 0.948364L43.163 3.39737" stroke="black" stroke-width="0.591476" stroke-miterlimit="10" stroke-linecap="round" stroke-linejoin="round"/>
  <path d="M137.906 37.4437L125.901 46.5676" stroke="black" stroke-width="0.591476" stroke-miterlimit="10" stroke-linecap="round" stroke-linejoin="round"/>
  <path d="M125.577 8.7951L118.218 15.8343" stroke="black" stroke-width="0.591476" stroke-miterlimit="10" stroke-linecap="round" stroke-linejoin="round"/>
  <path d="M129.263 5.26971L126.799 7.62674" stroke="black" stroke-width="0.591476" stroke-miterlimit="10" stroke-linecap="round" stroke-linejoin="round"/>
  <path d="M96.1291 0.948364L93.2476 9.59196" stroke="black" stroke-width="0.591476" stroke-miterlimit="10" stroke-linecap="round" stroke-linejoin="round"/>
  <path d="M70.6777 0.948364V7.67097" stroke="black" stroke-width="0.591476" stroke-miterlimit="10" stroke-linecap="round" stroke-linejoin="round"/>
</svg>