<svg xmlns="http://www.w3.org/2000/svg" width="37" height="37" viewBox="0 0 37 37" fill="none">
	<rect x="0.171875" y="0.310547" width="36.6553" height="36.6553" rx="18.3276" fill="#1A4383" />
	<path d="M25.0103 18.7656C24.9849 18.4291 24.7609 18.0962 24.3442 17.7762L19.4252 13.9983C18.9594 13.6404 18.3452 13.4434 17.6957 13.4434C17.0465 13.4434 16.4322 13.6404 15.9664 13.9983L11.0475 17.7763C10.6305 18.0965 10.4065 18.4295 10.3859 18.7399C10.3515 18.8714 10.334 19.004 10.334 19.134V26.0828C10.334 27.0313 11.1875 27.803 12.2365 27.803H23.1552C24.2042 27.803 25.0574 27.0313 25.0574 26.0828V19.134C25.0574 19.0043 25.0402 18.8718 25.0103 18.7656Z" fill="white" />
	<path d="M17.7217 8.68652C17.8468 8.69106 17.9869 8.73139 18.1396 8.82031L18.2969 8.92578L22.5967 12.2266L26.082 14.9043C26.3225 15.0883 26.4119 15.2401 26.4043 15.4043L26.3955 15.4746C26.3501 15.7 26.1851 15.8626 25.9521 15.9277C25.7461 15.9852 25.4937 15.9624 25.2627 15.8271L25.165 15.7617C24.6672 15.388 24.1741 15.0102 23.6816 14.6309L22.2012 13.4893C21.5491 12.9882 20.8965 12.4899 20.2461 11.9902L18.3027 10.4824C18.1495 10.3619 17.9656 10.2458 17.7412 10.2412C17.5708 10.2378 17.4215 10.2994 17.2881 10.3838L17.1592 10.4746C16.0239 11.354 14.8846 12.2297 13.7432 13.1035L10.3154 15.7217C10.2047 15.8061 10.0932 15.8771 9.98535 15.9248L9.87891 15.9648C9.59898 16.0462 9.30435 15.9538 9.13477 15.7832L9.07031 15.7051C8.94954 15.5292 8.9534 15.2868 9.13184 15.0908L9.21875 15.0107C9.70381 14.6288 10.2283 14.2403 10.7354 13.8457L11.2344 13.4482C11.3463 13.3571 11.4384 13.2384 11.5029 13.1162C11.5508 13.0257 11.5897 12.9209 11.6084 12.8115L11.6201 12.7002C11.6434 11.9091 11.6351 11.1146 11.6328 10.3135H13.3213V11.792L13.8301 11.4424L14.2197 11.1738L17.2129 8.86914C17.3885 8.73375 17.5583 8.6807 17.7217 8.68652Z" stroke="white" stroke-opacity="0.6" stroke-width="0.650205" />
	<path d="M17.6953 13.75C18.2114 13.75 18.6949 13.8871 19.0801 14.1309L19.2383 14.2412L24.1572 18.0195C24.5429 18.3157 24.6891 18.5779 24.7051 18.7891L24.707 18.8193L24.7158 18.8486C24.7371 18.9242 24.751 19.0283 24.751 19.1338V26.083C24.7508 26.834 24.0647 27.497 23.1553 27.4971H12.2363C11.3269 27.497 10.6408 26.8339 10.6406 26.083V19.1338C10.6406 19.0313 10.6545 18.9246 10.6826 18.8174L10.6895 18.7891L10.6914 18.7598C10.702 18.6022 10.8114 18.3829 11.0996 18.1299L11.2344 18.0195L16.1533 14.2412C16.5598 13.929 17.1063 13.7501 17.6953 13.75Z" stroke="white" stroke-opacity="0.25" stroke-width="0.612731" />
	<path d="M10.9512 22.1406H24.4481V25.8112C24.4481 26.6456 23.7717 27.3219 22.9374 27.3219H12.4619C11.6275 27.3219 10.9512 26.6456 10.9512 25.8112V22.1406Z" fill="#1A4383" />
	<path d="M15.0471 24.0041C15.4404 24.004 15.8338 24.0036 16.2272 24.0042C16.4519 24.0045 16.6098 24.1522 16.6071 24.3574C16.6045 24.556 16.4463 24.698 16.2256 24.6981C15.4317 24.6984 14.6377 24.6989 13.8437 24.6979C13.6589 24.6977 13.5115 24.5711 13.4876 24.399C13.4636 24.2254 13.5749 24.0595 13.7492 24.0154C13.7903 24.005 13.8348 24.0046 13.8777 24.0045C14.2675 24.0038 14.6573 24.0041 15.0471 24.0041Z" fill="white" />
	<path d="M14.6973 23.1314C14.7008 22.9381 14.8613 22.7857 15.0559 22.7912C15.2426 22.7964 15.3944 22.9562 15.3912 23.1442C15.388 23.3355 15.2242 23.4909 15.0322 23.4849C14.8452 23.4791 14.694 23.3194 14.6973 23.1314Z" fill="white" />
	<path d="M14.6973 25.559C14.6996 25.3665 14.8608 25.212 15.0542 25.2169C15.2417 25.2217 15.393 25.3795 15.3913 25.5686C15.3897 25.7556 15.2322 25.9113 15.0449 25.9109C14.8517 25.9106 14.695 25.752 14.6973 25.559Z" fill="white" />
	<path d="M14.6981 19.605C14.4107 19.605 14.14 19.6056 13.8693 19.6048C13.6412 19.6042 13.4835 19.4606 13.4844 19.2563C13.4853 19.053 13.6442 18.9113 13.8727 18.911C14.143 18.9106 14.4133 18.9108 14.6981 18.9108C14.6981 18.83 14.6981 18.7555 14.6981 18.681C14.6981 18.468 14.6955 18.2548 14.6988 18.0418C14.7017 17.8483 14.8555 17.6979 15.0438 17.6973C15.2321 17.6967 15.3885 17.8463 15.3909 18.0393C15.3946 18.3243 15.3919 18.6095 15.3919 18.9108H15.4999C15.7491 18.9109 15.9983 18.9096 16.2475 18.9115C16.4501 18.913 16.6037 19.0617 16.6058 19.2538C16.608 19.4497 16.4518 19.6034 16.2446 19.6047C15.964 19.6064 15.6833 19.6051 15.3922 19.6051C15.3922 19.9001 15.3937 20.1845 15.3917 20.4688C15.3906 20.6244 15.2991 20.7488 15.1569 20.7986C15.019 20.8468 14.8625 20.8106 14.7799 20.688C14.7345 20.6206 14.7045 20.5301 14.7017 20.4489C14.6923 20.172 14.6981 19.8945 14.6981 19.605Z" fill="#1A4383" />
	<path d="M19.6627 24.005C19.2729 24.005 18.8832 24.0054 18.4934 24.0049C18.2664 24.0046 18.1081 23.8602 18.1094 23.656C18.1106 23.4516 18.267 23.3111 18.4968 23.311C19.2836 23.3105 20.0703 23.3104 20.8571 23.3109C21.0746 23.3111 21.2308 23.4583 21.2306 23.6595C21.2304 23.8587 21.0721 24.0044 20.8537 24.0047C20.4567 24.0053 20.0597 24.0049 19.6627 24.005Z" fill="white" />
	<path d="M19.6696 24.6976C20.0629 24.6976 20.4563 24.6971 20.8496 24.6978C21.0754 24.6982 21.2336 24.8451 21.2309 25.0495C21.2283 25.2489 21.0709 25.3916 20.8508 25.3917C20.0605 25.3921 19.2701 25.3922 18.4798 25.3917C18.2691 25.3915 18.1121 25.2457 18.1094 25.0509C18.1066 24.8499 18.2635 24.6984 18.4787 24.6978C18.8756 24.6968 19.2726 24.6975 19.6696 24.6976Z" fill="white" />
	<path d="M19.6695 18.771C19.9408 18.4989 20.2004 18.2334 20.4657 17.9739C20.6643 17.7796 20.9763 17.8682 21.0467 18.1357C21.0808 18.2656 21.0398 18.3774 20.9463 18.471C20.7116 18.706 20.4766 18.9407 20.2419 19.1758C20.2169 19.2009 20.1932 19.2274 20.1583 19.2646C20.3283 19.4319 20.4952 19.5957 20.6615 19.7599C20.7539 19.8513 20.8462 19.9429 20.9374 20.0355C21.0925 20.1931 21.0983 20.4019 20.9526 20.5451C20.8101 20.6851 20.6036 20.6793 20.4508 20.5279C20.2175 20.2966 19.986 20.0634 19.7536 19.8313C19.7284 19.8061 19.7021 19.782 19.6627 19.7445C19.5834 19.8273 19.5079 19.9086 19.4298 19.9872C19.2467 20.1717 19.0639 20.3565 18.878 20.5383C18.7311 20.6819 18.5231 20.6813 18.3842 20.542C18.2458 20.4031 18.2459 20.1946 18.3906 20.0484C18.6495 19.787 18.9115 19.5286 19.1788 19.2625C19.1478 19.2291 19.1225 19.2001 19.0954 19.1729C18.8658 18.9429 18.6356 18.7136 18.4063 18.4834C18.2491 18.3256 18.2404 18.1187 18.3835 17.9741C18.5269 17.8291 18.7366 17.8351 18.8928 17.9911C19.1481 18.2461 19.4022 18.5025 19.6695 18.771Z" fill="#1A4383" />
</svg>
