<svg width="37" height="37" viewBox="0 0 37 37" fill="none" xmlns="http://www.w3.org/2000/svg">
<rect width="36.6553" height="36.6553" rx="18.3276" fill="#1A4383"/>
<path d="M17.4572 13.0603C17.5977 13.1026 17.6997 13.1387 17.7831 13.1762C18.147 13.3083 18.1774 13.3952 18.1774 13.4662C18.1774 13.5935 18.0309 13.6999 17.8008 13.7377C17.7551 13.7475 17.6962 13.7527 17.6299 13.7527C17.6165 13.7527 17.5927 13.7517 17.5692 13.7507L17.5512 13.7499C17.529 13.7485 17.5153 13.7472 17.5047 13.7485C17.3315 13.7282 17.1783 13.6833 17.0489 13.6146C16.881 13.5254 16.685 13.5616 16.5715 13.7026C16.5018 13.7889 16.473 13.9014 16.493 14.011C16.5118 14.1138 16.5728 14.2025 16.6607 14.2542C16.8646 14.3739 17.0999 14.4536 17.3611 14.4914V14.6374C17.3611 14.8038 17.4965 14.9393 17.6629 14.9393C17.8293 14.9393 17.9648 14.8038 17.9648 14.6374V14.4956C18.2537 14.4515 18.4956 14.3427 18.6847 14.1719C18.9068 13.9703 19.0193 13.7224 19.0193 13.4343C19.0193 13.1755 18.9202 12.9547 18.7251 12.7783L18.7246 12.778C18.5437 12.6164 18.2555 12.4672 17.8634 12.3328C17.7144 12.2939 17.5871 12.2462 17.4374 12.1725C17.3096 12.1102 17.2301 12.0235 17.2301 11.947C17.2301 11.8228 17.3402 11.7246 17.514 11.691C17.6016 11.6794 17.6624 11.6739 17.7049 11.6739C17.8354 11.6739 17.9664 11.6971 18.0937 11.7426C18.1341 11.7576 18.1723 11.7742 18.2075 11.7924C18.3694 11.8767 18.5608 11.8386 18.6728 11.6998C18.741 11.6147 18.7682 11.5046 18.747 11.3977C18.7251 11.2873 18.6554 11.1925 18.5558 11.1375C18.3813 11.0412 18.1827 10.9741 17.9648 10.9379V10.7916C17.9648 10.6252 17.8293 10.4897 17.6629 10.4897C17.4966 10.4897 17.3611 10.6252 17.3611 10.7916V10.9324C17.0513 10.9839 16.8017 11.118 16.6187 11.3311C16.4877 11.4838 16.4069 11.6816 16.3914 11.8881C16.3694 12.1836 16.4611 12.4303 16.6642 12.6212C16.8345 12.7814 17.0999 12.9288 17.4572 13.0603Z" fill="white"/>
<path d="M16.4099 8.60156C17.1846 8.03196 18.2232 8.03191 18.9978 8.60156L21.5164 10.4541C22.0735 10.8642 22.4059 11.5219 22.406 12.2129V15.0674C22.406 16.2714 21.4265 17.2517 20.2224 17.252H15.1853C13.9811 17.2518 13.0017 16.2714 13.0017 15.0674V12.2129C13.0018 11.5217 13.3344 10.864 13.8914 10.4541L16.4099 8.60156ZM17.7039 9.22266C17.4764 9.22266 17.2509 9.2933 17.0554 9.42969L17.0417 9.43652L17.03 9.44531L14.5115 11.2969C14.2217 11.5104 14.0487 11.8526 14.0486 12.2129V15.0674C14.0486 15.6946 14.5582 16.2049 15.1853 16.2051H20.2224C20.8494 16.2048 21.3591 15.6945 21.3591 15.0674V12.2129C21.3591 11.8975 21.2264 11.5964 20.9988 11.3828L20.8962 11.2969L18.3777 9.44531C18.1767 9.2975 17.9403 9.22267 17.7039 9.22266Z" fill="white" stroke="#1A4383" stroke-width="0.348932"/>
<path d="M23.6367 17.1108C24.1302 16.7039 24.8032 16.5687 25.3799 16.8052C26.0281 17.0711 26.4357 17.6904 26.4229 18.3921C26.4151 18.8152 26.2249 19.2232 25.9248 19.5425L20.0137 25.8315C19.4255 26.456 18.6319 26.8496 17.7793 26.9409H17.7783L12.335 27.5415C12.2617 27.5496 12.1883 27.5532 12.1152 27.5532C11.5155 27.5532 10.9516 27.2812 10.5693 26.7876C10.2285 26.3473 10.1104 25.7646 10.207 25.2026L10.9551 20.855C11.1172 19.9145 11.9261 19.2321 12.8799 19.2319H18.3545C19.4084 19.2319 20.2473 20.1697 20.082 21.2554C19.97 21.9901 19.3702 22.5677 18.626 22.7095L15.0283 23.394C14.7278 23.4503 14.4366 23.2381 14.4082 22.9253C14.3844 22.663 14.5877 22.4121 14.8721 22.3579L18.4863 21.6704C18.8168 21.6073 19.0566 21.3175 19.0566 20.981C19.0566 20.5939 18.7415 20.2788 18.3545 20.2788H12.8799C12.4376 20.279 12.0617 20.5967 11.9863 21.0327L11.2275 25.4458C11.1791 25.7287 11.2642 26.0123 11.4609 26.2212C11.6577 26.4301 11.9345 26.5326 12.2207 26.5015L17.666 25.9009C18.1964 25.8442 18.6929 25.6228 19.0879 25.272L19.251 25.1138L25.208 18.7769C25.3403 18.636 25.3737 18.4801 25.376 18.3657L25.3701 18.2671C25.3553 18.1595 25.2969 17.9532 25.0762 17.8198H25.0752C24.8483 17.6837 24.5619 17.7049 24.3584 17.8716L24.3574 17.8726C23.7725 18.3547 22.9092 19.0674 22.3555 19.5249C22.1331 19.7086 21.8047 19.6775 21.6201 19.4546C21.4357 19.2314 21.4662 18.9021 21.6885 18.7183C22.2254 18.2748 23.0536 17.5917 23.6367 17.1108Z" fill="white" stroke="#1A4383" stroke-width="0.348932"/>
</svg>
