<svg xmlns="http://www.w3.org/2000/svg" width="37" height="38" viewBox="0 0 37 38" fill="none">
	<rect y="0.701172" width="36.6553" height="36.6553" rx="18.3276" fill="#5E7489" />
	<path d="M14.9922 27.8206V29.7991H10.0928V27.8206H14.9922Z" fill="#5E7489" stroke="#BFC7D0" stroke-width="0.0428478" />
	<path d="M13.9209 25.7988V27.7773H9.02148V25.7988H13.9209Z" fill="#5E7489" stroke="#BFC7D0" stroke-width="0.0428478" />
	<path d="M14.9463 23.7769V25.7554H10.0469V23.7769H14.9463Z" fill="#5E7489" stroke="#BFC7D0" stroke-width="0.0428478" />
	<path d="M13.9209 21.7551V23.7336H9.02148V21.7551H13.9209Z" fill="#5E7489" stroke="#BFC7D0" stroke-width="0.0428478" />
	<path d="M15.0137 27.7991H10.0713V29.8209H15.0137V27.7991Z" stroke="#BFC7D0" stroke-width="0.856955" stroke-miterlimit="10" stroke-linecap="round" stroke-linejoin="round" />
	<path d="M13.9424 25.7773H9V27.7992H13.9424V25.7773Z" stroke="#BFC7D0" stroke-width="0.856955" stroke-miterlimit="10" stroke-linecap="round" stroke-linejoin="round" />
	<path d="M14.9678 23.7554H10.0254V25.7772H14.9678V23.7554Z" stroke="#BFC7D0" stroke-width="0.856955" stroke-miterlimit="10" stroke-linecap="round" stroke-linejoin="round" />
	<path d="M13.9424 21.7336H9V23.7555H13.9424V21.7336Z" stroke="#BFC7D0" stroke-width="0.856955" stroke-miterlimit="10" stroke-linecap="round" stroke-linejoin="round" />
	<path d="M22.1904 17.0215L25.5781 20.8359L25.5791 20.8369C26.4752 21.7331 26.9785 22.9486 26.9785 24.2158V25.0215C26.9783 27.6605 24.8392 29.7998 22.2002 29.7998H18.0244C16.8929 29.7998 15.8538 29.4064 15.0352 28.749V27.7773H14.1211C14.0664 27.6998 14.014 27.6207 13.9639 27.54V25.7988H14.9893V23.7344H13.9639V21.7119H13.9561C14.0994 21.4786 14.2627 21.2562 14.4463 21.0488L14.6455 20.8369L14.6465 20.8359L18.0342 17.0215H22.1904Z" fill="white" stroke="#BFC7D0" stroke-width="0.0428478" />
	<path d="M24.3975 13.3992L22.1895 16.9783H18.0352L15.8271 13.3992H24.3975Z" fill="white" stroke="#BFC7D0" stroke-width="0.0428478" />
	<path d="M27 24.2156V25.0211C27 27.6721 24.8512 29.8209 22.2002 29.8209H18.0243C16.8841 29.8209 15.8373 29.4237 15.0138 28.7596V27.7989H14.1097C14.0514 27.7167 13.9957 27.6327 13.9426 27.547V25.7774H14.9675V23.7554H13.9426V21.7338H13.916C14.1144 21.4048 14.3539 21.098 14.6303 20.8216L18.0238 17H22.2011L25.5942 20.8216C26.4944 21.7218 27 22.9426 27 24.2156Z" stroke="#BFC7D0" stroke-width="0.856955" stroke-miterlimit="10" stroke-linecap="round" stroke-linejoin="round" />
	<path d="M18.2775 13.3777H15.7881L18.0236 16.9999H22.2009L24.4364 13.3777H22.0466" stroke="#BFC7D0" stroke-width="0.856955" stroke-miterlimit="10" stroke-linecap="round" stroke-linejoin="round" />
	<path d="M22.2729 21.5198L18.2012 26.3601" stroke="#BFC7D0" stroke-width="0.856955" stroke-miterlimit="10" stroke-linecap="round" stroke-linejoin="round" />
	<path d="M18.4708 23.1072C18.9708 23.1072 19.3762 22.7013 19.3762 22.2007C19.3762 21.7 18.9708 21.2942 18.4708 21.2942C17.9708 21.2942 17.5654 21.7 17.5654 22.2007C17.5654 22.7013 17.9708 23.1072 18.4708 23.1072Z" stroke="#BFC7D0" stroke-width="0.856955" stroke-miterlimit="10" stroke-linecap="round" stroke-linejoin="round" />
	<path d="M21.9278 26.6897C22.4279 26.6897 22.8332 26.2838 22.8332 25.7832C22.8332 25.2826 22.4279 24.8767 21.9278 24.8767C21.4278 24.8767 21.0225 25.2826 21.0225 25.7832C21.0225 26.2838 21.4278 26.6897 21.9278 26.6897Z" stroke="#BFC7D0" stroke-width="0.856955" stroke-miterlimit="10" stroke-linecap="round" stroke-linejoin="round" />
	<path d="M13.6475 15.7532V8.74023" stroke="#BFC7D0" stroke-width="0.856955" stroke-miterlimit="10" stroke-linecap="round" stroke-linejoin="round" />
	<path d="M12.1367 10.2508L13.6357 8.74023L15.1347 10.2508" stroke="#BFC7D0" stroke-width="0.856955" stroke-miterlimit="10" stroke-linecap="round" stroke-linejoin="round" />
	<path d="M10.5732 12.2834V19.2404" stroke="#BFC7D0" stroke-width="0.856955" stroke-miterlimit="10" stroke-linecap="round" stroke-linejoin="round" />
	<path d="M12.084 17.7297L10.5849 19.2403L9.08594 17.7297" stroke="#BFC7D0" stroke-width="0.856955" stroke-miterlimit="10" stroke-linecap="round" stroke-linejoin="round" />
	<circle cx="20.155" cy="13.3777" r="0.428478" fill="#BFC7D0" />
</svg>
