<svg width="37" height="37" viewBox="0 0 37 37" fill="none" xmlns="http://www.w3.org/2000/svg">
<rect width="36.6553" height="36.6553" rx="18.3276" fill="#1A4383"/>
<path d="M24.2188 16.3443C24.2772 16.5095 24.3852 16.6525 24.528 16.754C24.6708 16.8554 24.8415 16.9102 25.0167 16.911H26.15C26.3754 16.911 26.5916 16.8214 26.751 16.662C26.9104 16.5026 27 16.2864 27 16.061V10.6776C27 10.4522 26.9104 10.236 26.751 10.0766C26.5916 9.91719 26.3754 9.82764 26.15 9.82764H25.0167C24.8415 9.82836 24.6708 9.88319 24.528 9.98463C24.3852 10.0861 24.2772 10.2291 24.2188 10.3943H18.3382C17.9724 10.394 17.6136 10.4946 17.3012 10.685L12.7271 13.4722C12.5489 13.5797 12.4108 13.7426 12.334 13.9361C12.2572 14.1295 12.2459 14.3428 12.3019 14.5433C12.3579 14.7437 12.478 14.9203 12.6439 15.046C12.8097 15.1718 13.0122 15.2396 13.2204 15.2393C13.4779 15.2393 13.5921 15.1543 14.3299 14.9197C13.7205 15.6649 13.3223 16.56 13.1769 17.5115C13.0316 18.4631 13.1443 19.4363 13.5034 20.3294C13.2633 20.3087 13.0221 20.3026 12.7812 20.311C12.7228 20.1458 12.6148 20.0027 12.472 19.9013C12.3292 19.7999 12.1585 19.745 11.9833 19.7443H10.85C10.6246 19.7443 10.4084 19.8339 10.249 19.9933C10.0896 20.1527 10 20.3689 10 20.5943V25.9776C10 26.2031 10.0896 26.4193 10.249 26.5787C10.4084 26.7381 10.6246 26.8276 10.85 26.8276H11.9833C12.1585 26.8269 12.3292 26.7721 12.472 26.6706C12.6148 26.5692 12.7228 26.4261 12.7812 26.261H18.6615C19.0273 26.2613 19.3861 26.1607 19.6985 25.9703L24.2726 23.1831C24.4736 23.0622 24.6229 22.8714 24.6919 22.6472C24.7608 22.423 24.7446 22.1812 24.6463 21.9683C24.548 21.7553 24.3745 21.5862 24.1591 21.4932C23.9438 21.4003 23.7017 21.3901 23.4793 21.4647L22.6707 21.735C23.2799 20.9898 23.678 20.0948 23.8233 19.1433C23.9686 18.1918 23.8559 17.2187 23.4969 16.3256C23.7369 16.3462 23.978 16.3524 24.2188 16.3443ZM25.0167 10.3943H26.15C26.2251 10.3943 26.2972 10.4242 26.3503 10.4773C26.4035 10.5304 26.4333 10.6025 26.4333 10.6776V16.061C26.4333 16.1361 26.4035 16.2082 26.3503 16.2613C26.2972 16.3145 26.2251 16.3443 26.15 16.3443H25.0167C24.9415 16.3443 24.8695 16.3145 24.8163 16.2613C24.7632 16.2082 24.7333 16.1361 24.7333 16.061V10.6776C24.7333 10.6025 24.7632 10.5304 24.8163 10.4773C24.8695 10.4242 24.9415 10.3943 25.0167 10.3943ZM13.3414 14.6531C13.2514 14.6825 13.1538 14.6778 13.0671 14.64C12.9804 14.6022 12.9106 14.5338 12.871 14.4479C12.8314 14.362 12.8247 14.2645 12.8522 14.174C12.8798 14.0835 12.9396 14.0062 13.0203 13.9569L17.5965 11.1687C17.8199 11.0324 18.0766 10.9606 18.3382 10.961H24.1667V15.7776H23.7924C22.4857 15.7776 22.1944 14.6443 20.84 14.6443H19.4829C18.8703 14.6443 18.2512 13.9873 18.6264 13.511H20.67C21.2322 13.5044 21.7773 13.3168 22.2244 12.976C22.2869 12.9343 22.3303 12.8694 22.345 12.7957C22.3597 12.722 22.3445 12.6454 22.3028 12.5829C22.261 12.5204 22.1961 12.477 22.1224 12.4623C22.0487 12.4476 21.9722 12.4628 21.9096 12.5046C21.5559 12.7833 21.1203 12.9378 20.67 12.9443H18.5932C18.5014 12.9477 18.4104 12.9622 18.3221 12.9874L13.3414 14.6531ZM11.9833 26.261H10.85C10.7749 26.261 10.7028 26.2311 10.6497 26.178C10.5965 26.1248 10.5667 26.0528 10.5667 25.9776V20.5943C10.5667 20.5192 10.5965 20.4471 10.6497 20.394C10.7028 20.3408 10.7749 20.311 10.85 20.311H11.9833C12.0585 20.311 12.1305 20.3408 12.1837 20.394C12.2368 20.4471 12.2667 20.5192 12.2667 20.5943V25.9776C12.2667 26.0528 12.2368 26.1248 12.1837 26.178C12.1305 26.2311 12.0585 26.261 11.9833 26.261ZM23.6584 22.0022C23.7483 21.9728 23.8459 21.9775 23.9326 22.0153C24.0193 22.0531 24.0891 22.1215 24.1287 22.2074C24.1683 22.2933 24.175 22.3908 24.1475 22.4813C24.1199 22.5718 24.0601 22.649 23.9794 22.6983L19.4036 25.4866C19.18 25.6228 18.9232 25.6946 18.6615 25.6943H12.8333V20.8776H13.2073C14.5138 20.8776 14.8048 22.011 16.1597 22.011H17.5168C18.1283 22.011 18.7485 22.668 18.3734 23.1443H16.3297C15.7675 23.1507 15.2225 23.3384 14.7756 23.6795C14.7151 23.7221 14.6736 23.7866 14.66 23.8593C14.6464 23.932 14.6618 24.0071 14.7029 24.0686C14.7439 24.1301 14.8074 24.1731 14.8798 24.1885C14.9521 24.2038 15.0276 24.1903 15.0901 24.1507C15.4438 23.872 15.8794 23.7175 16.3297 23.711H18.4065C18.4983 23.7075 18.5893 23.6931 18.6777 23.6679L23.6584 22.0022ZM21.4271 22.1509L19.0539 22.9443C19.1352 22.2643 18.4481 21.4426 17.5168 21.4426H16.1597C15.3462 21.4426 14.8798 20.7827 14.2061 20.5076C13.6945 19.505 13.5512 18.3547 13.8009 17.2572C14.0507 16.1598 14.6778 15.1848 15.5729 14.5024L17.9458 13.709C17.8645 14.389 18.5519 15.2107 19.4829 15.2107H20.84C21.6787 15.2107 22.0643 15.8482 22.795 16.1457C23.3065 17.1484 23.4498 18.2988 23.1998 19.3963C22.9498 20.4938 22.3224 21.4687 21.4271 22.1509Z" fill="white"/>
<path d="M17.5083 14.4774C17.4844 14.4061 17.4332 14.3473 17.3659 14.3139C17.2987 14.2804 17.2209 14.275 17.1496 14.2989C16.5949 14.4849 16.0845 14.7834 15.6504 15.1758C15.2164 15.5682 14.868 16.046 14.6272 16.5793C14.3864 17.1126 14.2583 17.6898 14.2509 18.2749C14.2435 18.86 14.357 19.4403 14.5843 19.9794C14.6137 20.0486 14.6694 20.1033 14.7391 20.1314C14.8087 20.1595 14.8868 20.1588 14.9559 20.1295C15.0251 20.1001 15.0798 20.0444 15.1079 19.9747C15.136 19.905 15.1353 19.827 15.106 19.7579C14.9092 19.2907 14.811 18.7878 14.8175 18.2809C14.824 17.774 14.9351 17.2739 15.1438 16.8119C15.3525 16.3499 15.6543 15.9359 16.0304 15.596C16.4064 15.256 16.8486 14.9973 17.3293 14.8361C17.3646 14.8243 17.3972 14.8057 17.4254 14.7813C17.4535 14.7569 17.4765 14.7272 17.4931 14.6938C17.5098 14.6605 17.5197 14.6243 17.5223 14.5871C17.5249 14.55 17.5202 14.5127 17.5083 14.4774Z" fill="white"/>
<path d="M21.894 16.8971C22.0908 17.3643 22.189 17.8671 22.1825 18.374C22.176 18.8809 22.0649 19.381 21.8562 19.843C21.6475 20.3051 21.3457 20.719 20.9696 21.059C20.5936 21.399 20.1514 21.6577 19.6707 21.8189C19.5993 21.8428 19.5404 21.894 19.5068 21.9614C19.4732 22.0288 19.4678 22.1067 19.4917 22.1781C19.5156 22.2495 19.5668 22.3085 19.6342 22.3421C19.7016 22.3756 19.7795 22.3811 19.8509 22.3572C20.4058 22.1712 20.9163 21.8725 21.3504 21.48C21.7844 21.0875 22.1328 20.6096 22.3736 20.0762C22.6143 19.5428 22.7424 18.9654 22.7496 18.3803C22.7568 17.7951 22.6432 17.2147 22.4157 16.6755C22.3863 16.6063 22.3306 16.5517 22.2609 16.5235C22.1913 16.4954 22.1132 16.4961 22.0441 16.5255C21.9749 16.5549 21.9202 16.6105 21.8921 16.6802C21.864 16.7499 21.8647 16.8279 21.894 16.8971Z" fill="white"/>
<path d="M20.2 19.3191C20.2 18.6768 19.5968 18.1612 18.7833 18.0626V16.6538C19.265 16.7351 19.6333 17.0131 19.6333 17.3358C19.6333 17.411 19.6632 17.483 19.7163 17.5362C19.7695 17.5893 19.8415 17.6191 19.9167 17.6191C19.9918 17.6191 20.0639 17.5893 20.117 17.5362C20.1702 17.483 20.2 17.411 20.2 17.3358C20.2 16.6935 19.5968 16.1778 18.7833 16.0792V15.7775C18.7833 15.7023 18.7535 15.6303 18.7004 15.5771C18.6472 15.524 18.5751 15.4941 18.5 15.4941C18.4249 15.4941 18.3528 15.524 18.2997 15.5771C18.2465 15.6303 18.2167 15.7023 18.2167 15.7775V16.0792C17.4032 16.1778 16.8 16.6935 16.8 17.3358C16.8 17.9781 17.4032 18.4938 18.2167 18.5924V20.0011C17.735 19.9198 17.3667 19.6419 17.3667 19.3191C17.3667 19.244 17.3368 19.1719 17.2837 19.1188C17.2305 19.0657 17.1585 19.0358 17.0833 19.0358C17.0082 19.0358 16.9361 19.0657 16.883 19.1188C16.8299 19.1719 16.8 19.244 16.8 19.3191C16.8 19.9615 17.4032 20.4771 18.2167 20.5757V20.8775C18.2167 20.9526 18.2465 21.0247 18.2997 21.0778C18.3528 21.131 18.4249 21.1608 18.5 21.1608C18.5751 21.1608 18.6472 21.131 18.7004 21.0778C18.7535 21.0247 18.7833 20.9526 18.7833 20.8775V20.5757C19.5968 20.4771 20.2 19.9615 20.2 19.3191ZM17.3667 17.3358C17.3667 17.0131 17.735 16.7351 18.2167 16.6538V18.0178C17.735 17.9365 17.3667 17.6585 17.3667 17.3358ZM18.7833 20.0011V18.6372C19.265 18.7185 19.6333 18.9964 19.6333 19.3191C19.6333 19.6419 19.265 19.9198 18.7833 20.0011Z" fill="white"/>
</svg>
