<svg width="36" height="36" viewBox="0 0 36 36" fill="none" xmlns="http://www.w3.org/2000/svg">
<rect x="0.0683594" y="0.0102539" width="35.8662" height="35.8662" rx="17.9331" fill="#1A4383"/>
<path fill-rule="evenodd" clip-rule="evenodd" d="M13.8506 15.8251L18.6088 11.0673C18.8027 10.8735 19.12 10.8733 19.3139 11.0673L24.0697 15.8251V22.1688C24.0697 22.6835 23.6517 23.1016 23.137 23.1016H22.5583V20.2661C22.5583 19.5951 22.011 19.0481 21.3401 19.0481H13.8506V15.8251ZM16.8508 17.7621C16.8508 17.9747 17.0249 18.1475 17.2372 18.1475H18.0302C18.2438 18.1475 18.4166 17.9759 18.4166 17.7621V16.9675C18.4166 16.7536 18.2439 16.5818 18.0302 16.5818H17.2372C17.0247 16.5818 16.8508 16.7547 16.8508 16.9675V17.7621ZM19.5037 17.7621C19.5037 17.9747 19.6777 18.1475 19.8901 18.1475H20.6854C20.8981 18.1475 21.0694 17.9744 21.0694 17.7621V16.9675C21.0694 16.755 20.8983 16.5818 20.6854 16.5818H19.8901C19.6776 16.5818 19.5037 16.7547 19.5037 16.9675V17.7621ZM17.2372 15.4945H18.0302C18.2439 15.4945 18.4166 15.322 18.4166 15.1083V14.3137C18.4166 14.1001 18.2437 13.928 18.0302 13.928H17.2372C17.025 13.928 16.8508 14.1012 16.8508 14.3137V15.1083C16.8508 15.3208 17.0248 15.4945 17.2372 15.4945ZM19.5037 15.1083C19.5037 15.3208 19.6776 15.4944 19.8901 15.4944H20.6854C20.8982 15.4944 21.0694 15.3205 21.0694 15.1083V14.3137C21.0694 14.1015 20.898 13.928 20.6854 13.928H19.8901C19.6778 13.928 19.5037 14.1012 19.5037 14.3137V15.1083ZM22.1346 21.0206H9.54395V22.5407H22.1346V21.0206ZM20.2781 24.1598C20.3302 24.1598 20.3742 24.2035 20.3742 24.2557V25.5615C20.3742 25.6135 20.3303 25.6578 20.2781 25.6578H18.971C18.9188 25.6578 18.8749 25.6136 18.8749 25.5615V24.2557C18.8749 24.2035 18.9188 24.1598 18.971 24.1598H20.2781Z" fill="white"/>
<path fill-rule="evenodd" clip-rule="evenodd" d="M17.9195 14.9955H17.3497V14.4269H17.9195V14.9955ZM18.031 13.8512H17.2381C16.9835 13.8512 16.775 14.0587 16.775 14.3136V15.1082C16.775 15.3633 16.9835 15.5711 17.2381 15.5711H18.031C18.288 15.5711 18.4942 15.3633 18.4942 15.1082V14.3136C18.4942 14.0587 18.2881 13.8512 18.031 13.8512ZM20.0049 14.4269H20.5723V14.9955H20.0049V14.4269ZM19.891 15.5711H20.6863C20.9409 15.5711 21.1471 15.3633 21.1471 15.1082V14.3136C21.1471 14.0587 20.9409 13.8512 20.6863 13.8512H19.891C19.6363 13.8512 19.4278 14.0587 19.4278 14.3136V15.1082C19.4278 15.3633 19.6363 15.5711 19.891 15.5711ZM17.9195 17.6488H17.3497V17.0806H17.9195V17.6488ZM18.031 16.505H17.2381C16.9835 16.505 16.775 16.712 16.775 16.9674V17.762C16.775 18.0171 16.9835 18.2242 17.2381 18.2242H18.031C18.288 18.2242 18.4942 18.0171 18.4942 17.762V16.9674C18.4942 16.7121 18.2881 16.505 18.031 16.505ZM20.0049 17.0806H20.5723V17.6487H20.0049V17.0806ZM19.891 18.2242H20.6863C20.9409 18.2242 21.1471 18.0171 21.1471 17.762V16.9674C21.1471 16.712 20.9409 16.505 20.6863 16.505H19.891C19.6363 16.505 19.4278 16.712 19.4278 16.9674V17.762C19.4278 18.0171 19.6363 18.2242 19.891 18.2242ZM13.2759 24.8189V24.9981C13.2759 25.1575 13.1473 25.286 12.9873 25.286C12.8297 25.286 12.7012 25.1574 12.7012 24.9981V24.8189C12.7012 24.6601 12.8297 24.5313 12.9873 24.5313C13.1473 24.5313 13.2759 24.6601 13.2759 24.8189ZM17.0611 24.8189V24.9981C17.0611 25.1575 16.9325 25.286 16.7725 25.286C16.6149 25.286 16.484 25.1574 16.484 24.9981V24.8189C16.484 24.6601 16.6149 24.5313 16.7725 24.5313C16.9326 24.5313 17.0611 24.6601 17.0611 24.8189ZM15.1697 24.8189V24.9981C15.1697 25.1575 15.0387 25.286 14.8811 25.286C14.7211 25.286 14.5926 25.1574 14.5926 24.9981V24.8189C14.5926 24.6601 14.7211 24.5313 14.8811 24.5313C15.0387 24.5313 15.1697 24.6601 15.1697 24.8189ZM11.3844 24.8189V24.9981C11.3844 25.1575 11.2559 25.286 11.0959 25.286C10.9383 25.286 10.8073 25.1574 10.8073 24.9981V24.8189C10.8073 24.6601 10.9383 24.5313 11.0959 24.5313C11.2559 24.5313 11.3844 24.6601 11.3844 24.8189ZM20.2983 25.5614C20.2983 25.5713 20.2886 25.5811 20.2789 25.5811H18.9719C18.9622 25.5811 18.9525 25.5714 18.9525 25.5614V24.2556C18.9525 24.2457 18.9622 24.2365 18.9719 24.2365H20.2789C20.2886 24.2365 20.2983 24.2457 20.2983 24.2556V25.5614ZM20.2789 23.6611H18.9719C18.6445 23.6611 18.3778 23.9278 18.3778 24.2556V25.5614C18.3778 25.8895 18.6445 26.1565 18.9719 26.1565H20.2789C20.6063 26.1565 20.873 25.8895 20.873 25.5614V24.2556C20.873 23.9278 20.6063 23.6611 20.2789 23.6611ZM26.1859 16.2911C26.4478 16.0311 26.4478 15.6075 26.1859 15.3473L20.4729 9.64931C19.6339 8.81201 18.2711 8.81323 17.4321 9.65126L11.736 15.3473C11.61 15.4727 11.5421 15.64 11.5421 15.8192C11.5421 16.424 12.2714 16.7018 12.6793 16.2911L18.2565 10.7148C18.6458 10.3251 19.2771 10.326 19.6678 10.7148L25.2426 16.2911C25.5019 16.5497 25.9296 16.551 26.1859 16.2911ZM23.9938 22.1688V15.8568L19.2605 11.1215C19.0955 10.9573 18.8264 10.9573 18.6639 11.1215L13.9281 15.8568V18.9713H21.341C22.0539 18.9713 22.6359 19.5523 22.6359 20.266V23.0248H23.1378C23.6107 23.0248 23.9938 22.6406 23.9938 22.1688ZM21.341 26.865C21.7363 26.865 22.0588 26.5423 22.0588 26.1453V23.0393H9.62153V26.1453C9.62153 26.5423 9.94405 26.865 10.3417 26.865H21.341ZM22.0588 21.0972V22.4639H9.62153V21.0972H22.0588ZM10.3418 19.547H21.341C21.7363 19.547 22.0588 19.8697 22.0588 20.2659V20.5215H9.62153V20.2659C9.62153 19.8697 9.94405 19.547 10.3418 19.547ZM26.5933 14.9402L20.8803 9.24169C19.8158 8.18079 18.0868 8.18201 17.0247 9.24414L11.3287 14.9402C10.8465 15.4236 10.847 16.2163 11.3287 16.698C11.8118 17.1811 12.601 17.1839 13.0867 16.698L13.3534 16.4324V18.9713H10.3418C9.62642 18.9713 9.04688 19.5523 9.04688 20.2659V26.1453C9.04688 26.8594 9.62642 27.4404 10.3418 27.4404H21.341C22.0539 27.4404 22.6359 26.8594 22.6359 26.1453V23.6004H23.1378C23.9283 23.6004 24.5709 22.958 24.5709 22.1687V16.4324L24.8353 16.698C25.3181 17.1807 26.1086 17.1838 26.5933 16.698C27.0783 16.2132 27.0783 15.4247 26.5933 14.9402Z" fill="white" fill-opacity="0.6"/>
</svg>
