<svg xmlns="http://www.w3.org/2000/svg" width="36" height="36" viewBox="0 0 36 36" fill="none">
	<rect y="-0.00195312" width="35.0488" height="35.0488" rx="17.5244" fill="#1A4383" />
	<path fill-rule="evenodd" clip-rule="evenodd" d="M13.8506 15.6615L18.6088 10.9037C18.8027 10.7099 19.12 10.7098 19.3139 10.9037L24.0697 15.6615V22.0053C24.0697 22.5199 23.6517 22.938 23.137 22.938H22.5583V20.1025C22.5583 19.4315 22.011 18.8846 21.3401 18.8846H13.8506V15.6615ZM16.8508 17.5985C16.8508 17.8112 17.0249 17.9839 17.2372 17.9839H18.0302C18.2438 17.9839 18.4166 17.8123 18.4166 17.5985V16.8039C18.4166 16.59 18.2439 16.4182 18.0302 16.4182H17.2372C17.0247 16.4182 16.8508 16.5911 16.8508 16.8039V17.5985ZM19.5037 17.5985C19.5037 17.8112 19.6777 17.9839 19.8901 17.9839H20.6854C20.8981 17.9839 21.0694 17.8108 21.0694 17.5985V16.8039C21.0694 16.5915 20.8983 16.4182 20.6854 16.4182H19.8901C19.6776 16.4182 19.5037 16.5911 19.5037 16.8039V17.5985ZM17.2372 15.3309H18.0302C18.2439 15.3309 18.4166 15.1585 18.4166 14.9448V14.1501C18.4166 13.9365 18.2437 13.7644 18.0302 13.7644H17.2372C17.025 13.7644 16.8508 13.9377 16.8508 14.1501V14.9448C16.8508 15.1573 17.0248 15.3309 17.2372 15.3309ZM19.5037 14.9447C19.5037 15.1573 19.6776 15.3309 19.8901 15.3309H20.6854C20.8982 15.3309 21.0694 15.1569 21.0694 14.9447V14.1501C21.0694 13.9379 20.898 13.7644 20.6854 13.7644H19.8901C19.6778 13.7644 19.5037 13.9376 19.5037 14.1501V14.9447ZM22.1346 20.857H9.54395V22.3771H22.1346V20.857ZM20.2781 23.9962C20.3302 23.9962 20.3742 24.0399 20.3742 24.0921V25.3979C20.3742 25.45 20.3303 25.4943 20.2781 25.4943H18.971C18.9188 25.4943 18.8749 25.45 18.8749 25.3979V24.0921C18.8749 24.0399 18.9188 23.9962 18.971 23.9962H20.2781Z" fill="white" />
	<path fill-rule="evenodd" clip-rule="evenodd" d="M17.9195 14.8319H17.3497V14.2633H17.9195V14.8319ZM18.031 13.6876H17.2381C16.9835 13.6876 16.775 13.8952 16.775 14.15V14.9446C16.775 15.1997 16.9835 15.4076 17.2381 15.4076H18.031C18.288 15.4076 18.4942 15.1998 18.4942 14.9446V14.15C18.4942 13.8952 18.2881 13.6876 18.031 13.6876ZM20.0049 14.2633H20.5723V14.8319H20.0049V14.2633ZM19.891 15.4076H20.6863C20.9409 15.4076 21.1471 15.1998 21.1471 14.9446V14.15C21.1471 13.8952 20.9409 13.6876 20.6863 13.6876H19.891C19.6363 13.6876 19.4278 13.8952 19.4278 14.15V14.9446C19.4278 15.1998 19.6363 15.4076 19.891 15.4076ZM17.9195 17.4852H17.3497V16.9171H17.9195V17.4852ZM18.031 16.3414H17.2381C16.9835 16.3414 16.775 16.5484 16.775 16.8038V17.5984C16.775 17.8535 16.9835 18.0606 17.2381 18.0606H18.031C18.288 18.0606 18.4942 17.8536 18.4942 17.5984V16.8038C18.4942 16.5485 18.2881 16.3414 18.031 16.3414ZM20.0049 16.917H20.5723V17.4852H20.0049V16.917ZM19.891 18.0606H20.6863C20.9409 18.0606 21.1471 17.8536 21.1471 17.5984V16.8038C21.1471 16.5484 20.9409 16.3414 20.6863 16.3414H19.891C19.6363 16.3414 19.4278 16.5484 19.4278 16.8038V17.5984C19.4278 17.8536 19.6363 18.0606 19.891 18.0606ZM13.2759 24.6554V24.8346C13.2759 24.9939 13.1473 25.1224 12.9873 25.1224C12.8297 25.1224 12.7012 24.9939 12.7012 24.8346V24.6554C12.7012 24.4965 12.8297 24.3678 12.9873 24.3678C13.1473 24.3678 13.2759 24.4965 13.2759 24.6554ZM17.0611 24.6554V24.8346C17.0611 24.9939 16.9325 25.1224 16.7725 25.1224C16.6149 25.1224 16.484 24.9939 16.484 24.8346V24.6554C16.484 24.4965 16.6149 24.3678 16.7725 24.3678C16.9326 24.3678 17.0611 24.4965 17.0611 24.6554ZM15.1697 24.6554V24.8346C15.1697 24.9939 15.0387 25.1224 14.8811 25.1224C14.7211 25.1224 14.5926 24.9939 14.5926 24.8346V24.6554C14.5926 24.4965 14.7211 24.3678 14.8811 24.3678C15.0387 24.3678 15.1697 24.4965 15.1697 24.6554ZM11.3844 24.6554V24.8346C11.3844 24.9939 11.2559 25.1224 11.0959 25.1224C10.9383 25.1224 10.8073 24.9939 10.8073 24.8346V24.6554C10.8073 24.4965 10.9383 24.3678 11.0959 24.3678C11.2559 24.3678 11.3844 24.4965 11.3844 24.6554ZM20.2983 25.3979C20.2983 25.4078 20.2886 25.4175 20.2789 25.4175H18.9719C18.9622 25.4175 18.9525 25.4078 18.9525 25.3979V24.0921C18.9525 24.0821 18.9622 24.0729 18.9719 24.0729H20.2789C20.2886 24.0729 20.2983 24.0821 20.2983 24.0921V25.3979ZM20.2789 23.4975H18.9719C18.6445 23.4975 18.3778 23.7642 18.3778 24.0921V25.3979C18.3778 25.7259 18.6445 25.9929 18.9719 25.9929H20.2789C20.6063 25.9929 20.873 25.7259 20.873 25.3979V24.0921C20.873 23.7642 20.6063 23.4975 20.2789 23.4975ZM26.1859 16.1275C26.4478 15.8675 26.4478 15.4439 26.1859 15.1837L20.4729 9.48574C19.6339 8.64844 18.2711 8.64966 17.4321 9.48768L11.736 15.1837C11.61 15.3091 11.5421 15.4764 11.5421 15.6556C11.5421 16.2604 12.2714 16.5382 12.6793 16.1275L18.2565 10.5513C18.6458 10.1616 19.2771 10.1624 19.6678 10.5513L25.2426 16.1275C25.5019 16.3861 25.9296 16.3874 26.1859 16.1275ZM23.9938 22.0052V15.6932L19.2605 10.9579C19.0955 10.7937 18.8264 10.7937 18.6639 10.9579L13.9281 15.6932V18.8078H21.341C22.0539 18.8078 22.6359 19.3888 22.6359 20.1024V22.8612H23.1378C23.6107 22.8612 23.9938 22.4771 23.9938 22.0052ZM21.341 26.7015C21.7363 26.7015 22.0588 26.3787 22.0588 25.9818V22.8757H9.62153V25.9818C9.62153 26.3787 9.94405 26.7015 10.3417 26.7015H21.341ZM22.0588 20.9336V22.3003H9.62153V20.9336H22.0588ZM10.3418 19.3834H21.341C21.7363 19.3834 22.0588 19.7062 22.0588 20.1024V20.3579H9.62153V20.1024C9.62153 19.7062 9.94405 19.3834 10.3418 19.3834ZM26.5933 14.7766L20.8803 9.07812C19.8158 8.01721 18.0868 8.01844 17.0247 9.08056L11.3287 14.7766C10.8465 15.26 10.847 16.0527 11.3287 16.5344C11.8118 17.0175 12.601 17.0203 13.0867 16.5344L13.3534 16.2689V18.8077H10.3418C9.62642 18.8077 9.04688 19.3887 9.04688 20.1024V25.9817C9.04688 26.6959 9.62642 27.2769 10.3418 27.2769H21.341C22.0539 27.2769 22.6359 26.6959 22.6359 25.9817V23.4368H23.1378C23.9283 23.4368 24.5709 22.7944 24.5709 22.0051V16.2689L24.8353 16.5344C25.3181 17.0171 26.1086 17.0202 26.5933 16.5344C27.0783 16.0497 27.0783 15.2611 26.5933 14.7766Z" fill="white" fill-opacity="0.6" />
</svg>
