<svg xmlns="http://www.w3.org/2000/svg" width="37" height="38" viewBox="0 0 37 38" fill="none">
	<rect x="0.171875" y="0.65625" width="36.6553" height="36.6553" rx="18.3276" fill="#1A4383" />
	<path d="M11.6428 14.6017V11.638H13.4341V13.173L11.6428 14.6017ZM18.5356 18.8975C18.3118 18.8975 18.0902 18.9415 17.8834 19.0272C17.6767 19.1128 17.4888 19.2384 17.3305 19.3966C17.1723 19.5549 17.0468 19.7427 16.9611 19.9495C16.8755 20.1563 16.8314 20.3779 16.8314 20.6017C16.8314 20.6171 16.8322 24.3028 16.8327 26.3272H12.3566L11.2988 17.0649L18.4996 11.332L25.7886 17.3221L25.3561 21.1092C24.9338 20.7949 24.4559 20.5632 23.9476 20.4263L24.1241 19.0535H21.587V20.478C21.0976 20.6334 20.6409 20.8775 20.2399 21.1983V20.602C20.2399 20.3782 20.1959 20.1566 20.1102 19.9498C20.0246 19.743 19.899 19.5551 19.7408 19.3968C19.5825 19.2386 19.3946 19.113 19.1879 19.0274C18.9811 18.9417 18.7595 18.8976 18.5356 18.8976V18.8975ZM15.484 19.0535H12.9472L13.3261 22.0007H15.4842L15.484 19.0535ZM21.5869 22.6435C21.4522 22.6435 21.3206 22.6835 21.2087 22.7583C21.0967 22.8331 21.0095 22.9394 20.9579 23.0638C20.9064 23.1882 20.8929 23.325 20.9192 23.4571C20.9455 23.5891 21.0103 23.7104 21.1055 23.8056C21.2007 23.9008 21.322 23.9657 21.4541 23.9919C21.5861 24.0182 21.723 24.0047 21.8474 23.9532C21.9718 23.9017 22.0781 23.8144 22.1529 23.7025C22.2277 23.5905 22.2676 23.4589 22.2676 23.3243C22.2676 23.1438 22.1959 22.9707 22.0682 22.8431C21.9406 22.7155 21.7675 22.6437 21.587 22.6437L21.5869 22.6435ZM24.7198 25.7218C24.7198 25.8564 24.6799 25.988 24.6051 26.1C24.5303 26.2119 24.4239 26.2992 24.2996 26.3507C24.1752 26.4022 24.0383 26.4157 23.9062 26.3894C23.7742 26.3632 23.6529 26.2983 23.5577 26.2031C23.4625 26.1079 23.3976 25.9866 23.3714 25.8546C23.3451 25.7225 23.3586 25.5856 23.4101 25.4613C23.4616 25.3369 23.5489 25.2305 23.6608 25.1557C23.7728 25.0809 23.9044 25.041 24.039 25.041C24.1285 25.041 24.217 25.0586 24.2996 25.0928C24.3823 25.127 24.4573 25.1772 24.5206 25.2404C24.5838 25.3036 24.6339 25.3787 24.6682 25.4613C24.7024 25.5439 24.72 25.6325 24.7199 25.7219L24.7198 25.7218Z" fill="white" />
	<path d="M26.345 18.0831C26.393 18.1226 26.4546 18.1414 26.5165 18.1354C26.5783 18.1295 26.6353 18.0992 26.6749 18.0513L27.7645 16.7333C27.7842 16.7094 27.799 16.682 27.808 16.6524C27.8171 16.6229 27.8202 16.5918 27.8172 16.5611C27.8143 16.5303 27.8052 16.5005 27.7907 16.4732C27.7761 16.4459 27.7564 16.4218 27.7325 16.4022L19.0019 9.24075C18.8601 9.12537 18.6832 9.06181 18.5004 9.06057C18.3175 9.05932 18.1398 9.12047 17.9964 9.23391L13.6692 12.6856V11.9414H13.9256C13.9878 11.9414 14.0475 11.9167 14.0915 11.8726C14.1356 11.8286 14.1603 11.7689 14.1603 11.7067V10.4932C14.1603 10.431 14.1356 10.3712 14.0915 10.3272C14.0475 10.2832 13.9878 10.2585 13.9256 10.2585H11.152C11.0898 10.2585 11.0301 10.2832 10.986 10.3272C10.942 10.3712 10.9173 10.431 10.9173 10.4932V11.7067C10.9173 11.7689 10.942 11.8286 10.986 11.8726C11.0301 11.9167 11.0898 11.9414 11.152 11.9414H11.4085V14.4888L9.26999 16.1946C9.22145 16.2333 9.19023 16.2897 9.18316 16.3514C9.1761 16.4131 9.19378 16.4751 9.23232 16.5238L10.2936 17.8648C10.3128 17.889 10.3365 17.9092 10.3635 17.9242C10.3905 17.9392 10.4202 17.9488 10.4509 17.9523C10.4816 17.9558 10.5127 17.9533 10.5424 17.9447C10.5721 17.9362 10.5998 17.9219 10.6239 17.9027L11.114 17.5125L12.1237 26.3541C12.1303 26.4113 12.1576 26.4642 12.2007 26.5026C12.2437 26.541 12.2993 26.5622 12.3569 26.5622H18.9499C19.2593 27.1424 19.6941 27.6465 20.2226 28.0377C20.7511 28.4289 21.3602 28.6975 22.0055 28.8239C22.6508 28.9503 23.3161 28.9315 23.9532 28.7686C24.5903 28.6058 25.1832 28.3031 25.6887 27.8825C26.1942 27.462 26.5996 26.9341 26.8756 26.3372C27.1516 25.7404 27.2912 25.0896 27.2843 24.432C27.2773 23.7745 27.124 23.1268 26.8355 22.5359C26.5469 21.945 26.1304 21.4258 25.6161 21.016L25.9919 17.7929L26.345 18.0831ZM11.3868 10.7279H13.6908V11.4719H11.3868V10.7279ZM11.878 11.9414H13.1997V13.0601L11.878 14.1143V11.9414ZM10.5157 17.3887L9.74558 16.4157L18.2894 9.60092C18.3485 9.55416 18.4218 9.52896 18.4972 9.52948C18.5726 9.53 18.6456 9.55621 18.7041 9.60378L27.2525 16.6155L26.4622 17.5716L18.649 11.1508C18.6075 11.1166 18.5555 11.0978 18.5018 11.0974C18.4481 11.097 18.3958 11.115 18.3538 11.1485L10.5157 17.3887ZM17.0681 26.0927C17.0677 25.0117 17.0665 20.6206 17.0665 20.6019C17.0655 20.4083 17.1028 20.2164 17.1762 20.0373C17.2496 19.8581 17.3577 19.6952 17.4942 19.5579C17.6308 19.4207 17.7931 19.3118 17.9719 19.2374C18.1507 19.1631 18.3424 19.1248 18.536 19.1248C18.7296 19.1248 18.9214 19.1631 19.1001 19.2374C19.2789 19.3118 19.4413 19.4207 19.5778 19.5579C19.7144 19.6952 19.8224 19.8581 19.8958 20.0373C19.9692 20.2164 20.0065 20.4083 20.0055 20.6019V21.09C19.2965 21.6857 18.7922 22.489 18.5638 23.3865C18.3354 24.284 18.3944 25.2305 18.7325 26.0927H17.0681ZM26.8151 24.4766C26.8151 25.2597 26.5829 26.0252 26.1479 26.6763C25.7128 27.3274 25.0945 27.8348 24.371 28.1345C23.6475 28.4342 22.8515 28.5126 22.0834 28.3598C21.3154 28.207 20.6099 27.83 20.0562 27.2762C19.5025 26.7225 19.1254 26.017 18.9726 25.249C18.8199 24.481 18.8983 23.6849 19.198 22.9614C19.4976 22.238 20.0051 21.6196 20.6562 21.1846C21.3073 20.7495 22.0728 20.5173 22.8559 20.5173C23.9056 20.5185 24.9119 20.936 25.6542 21.6783C26.3964 22.4205 26.814 23.4269 26.8151 24.4766ZM23.7483 20.1383C23.1116 20.0079 22.4541 20.0187 21.8221 20.17V19.2885H23.8575L23.7483 20.1383ZM25.1794 20.708C24.8745 20.5192 24.5476 20.3683 24.2062 20.2586L24.3572 19.0836C24.3614 19.0505 24.3586 19.0169 24.3488 18.985C24.3391 18.9531 24.3226 18.9237 24.3006 18.8987C24.2786 18.8736 24.2514 18.8536 24.2211 18.8398C24.1907 18.8261 24.1577 18.819 24.1244 18.819H21.5874C21.5251 18.819 21.4654 18.8437 21.4214 18.8877C21.3773 18.9317 21.3526 18.9915 21.3526 19.0537V20.3107C21.0449 20.4222 20.7506 20.5674 20.475 20.7438V20.6019C20.4761 20.3466 20.4268 20.0935 20.3299 19.8573C20.2329 19.621 20.0903 19.4062 19.9101 19.2252C19.73 19.0443 19.5158 18.9007 19.28 18.8027C19.0442 18.7047 18.7914 18.6542 18.536 18.6542C18.2806 18.6542 18.0278 18.7047 17.792 18.8027C17.5561 18.9007 17.342 19.0443 17.1618 19.2252C16.9817 19.4062 16.839 19.621 16.7421 19.8573C16.6452 20.0935 16.5959 20.3466 16.597 20.6019C16.597 20.6206 16.5982 25.0114 16.5985 26.0927H12.5664L11.5471 17.1677L18.4977 11.634L25.5606 17.4384L25.1794 20.708ZM15.4847 18.819H12.9475C12.9142 18.819 12.8812 18.8261 12.8508 18.8398C12.8205 18.8536 12.7933 18.8736 12.7713 18.8987C12.7493 18.9237 12.7328 18.9531 12.7231 18.985C12.7133 19.0169 12.7105 19.0505 12.7147 19.0836L13.0936 22.0309C13.1009 22.0875 13.1286 22.1395 13.1714 22.1772C13.2143 22.2149 13.2694 22.2357 13.3265 22.2357H15.4845C15.5468 22.2357 15.6065 22.211 15.6505 22.167C15.6946 22.123 15.7193 22.0633 15.7193 22.001V19.0537C15.7193 18.9915 15.6946 18.9317 15.6505 18.8877C15.6065 18.8437 15.5468 18.819 15.4845 18.819H15.4847ZM15.2499 21.7663H13.533L13.2144 19.2885H15.2498L15.2499 21.7663ZM21.5875 24.2076C21.7686 24.2076 21.9457 24.1539 22.0963 24.0533C22.2469 23.9527 22.3643 23.8097 22.4336 23.6424C22.5029 23.475 22.5211 23.2909 22.4858 23.1133C22.4504 22.9356 22.3632 22.7725 22.2352 22.6444C22.1071 22.5163 21.9439 22.4291 21.7663 22.3938C21.5886 22.3584 21.4045 22.3766 21.2372 22.4459C21.0698 22.5153 20.9268 22.6327 20.8262 22.7833C20.7256 22.9339 20.6719 23.1109 20.672 23.2921C20.6723 23.5348 20.7688 23.7674 20.9404 23.9391C21.112 24.1107 21.3447 24.2073 21.5874 24.2076L21.5875 24.2076ZM21.5875 22.8457C21.6757 22.8456 21.762 22.8718 21.8354 22.9208C21.9088 22.9698 21.966 23.0394 21.9998 23.121C22.0337 23.2025 22.0425 23.2922 22.0253 23.3788C22.0081 23.4654 21.9657 23.5449 21.9033 23.6073C21.8409 23.6697 21.7614 23.7122 21.6748 23.7295C21.5883 23.7467 21.4985 23.7379 21.417 23.7041C21.3354 23.6704 21.2657 23.6132 21.2167 23.5398C21.1677 23.4664 21.1415 23.3802 21.1415 23.2919C21.1416 23.1737 21.1886 23.0603 21.2722 22.9767C21.3558 22.8931 21.4691 22.846 21.5874 22.8457L21.5875 22.8457ZM23.0914 25.7051C23.0914 25.8862 23.1451 26.0632 23.2457 26.2137C23.3463 26.3643 23.4893 26.4816 23.6566 26.5509C23.8238 26.6202 24.0079 26.6383 24.1855 26.603C24.3631 26.5677 24.5262 26.4805 24.6542 26.3525C24.7823 26.2244 24.8695 26.0613 24.9048 25.8837C24.9401 25.7061 24.922 25.5221 24.8527 25.3548C24.7834 25.1875 24.6661 25.0445 24.5155 24.9439C24.365 24.8433 24.188 24.7896 24.0069 24.7896C23.7642 24.7899 23.5315 24.8865 23.3598 25.0581C23.1882 25.2297 23.0916 25.4625 23.0913 25.7052L23.0914 25.7051ZM24.4533 25.7051C24.4533 25.7933 24.4271 25.8796 24.3781 25.9529C24.3291 26.0262 24.2594 26.0834 24.1779 26.1172C24.0964 26.1509 24.0068 26.1598 23.9202 26.1426C23.8337 26.1253 23.7543 26.0829 23.6919 26.0205C23.6295 25.9581 23.587 25.8786 23.5698 25.7921C23.5526 25.7056 23.5614 25.6159 23.5952 25.5344C23.629 25.4529 23.6861 25.3833 23.7595 25.3343C23.8328 25.2853 23.919 25.2591 24.0073 25.2591C24.1255 25.2593 24.2388 25.3064 24.3224 25.39C24.406 25.4736 24.453 25.587 24.4531 25.7052L24.4533 25.7051ZM20.977 26.3372L24.2042 22.4643C24.2442 22.4171 24.3013 22.3877 24.3629 22.3823C24.4246 22.377 24.4858 22.3963 24.5334 22.4359C24.5809 22.4755 24.6109 22.5323 24.6168 22.5939C24.6227 22.6555 24.604 22.7169 24.5648 22.7648L21.3374 26.6378C21.3178 26.6618 21.2936 26.6817 21.2662 26.6963C21.2389 26.7109 21.2089 26.7199 21.178 26.7229C21.1472 26.7258 21.116 26.7226 21.0864 26.7135C21.0568 26.7043 21.0292 26.6894 21.0054 26.6695C20.9816 26.6497 20.9619 26.6253 20.9476 26.5978C20.9332 26.5703 20.9245 26.5403 20.9218 26.5094C20.9191 26.4785 20.9226 26.4474 20.932 26.4178C20.9415 26.3883 20.9567 26.3609 20.9767 26.3373L20.977 26.3372Z" fill="white" fill-opacity="0.6" />
</svg>
