<svg width="37" height="38" viewBox="0 0 37 38" fill="none" xmlns="http://www.w3.org/2000/svg">
	<rect y="0.740234" width="36.6553" height="36.6553" rx="18.3276" fill="#1A4383" />
	<path d="M22.7258 12.6335L20.7479 11.0047C20.6791 10.9481 20.5754 10.997 20.5754 11.0861V11.7624H15.623C16.1764 12.2616 16.5822 12.9214 16.7664 13.6676H20.5754V14.3438C20.5754 14.433 20.6791 14.4819 20.7479 14.4253L22.7258 12.7964C22.777 12.7542 22.777 12.6757 22.7258 12.6335Z" fill="#1A4383" />
	<path d="M20.2239 12.8484H16.459C16.5914 13.1059 16.6955 13.3802 16.7664 13.6676H20.5754V13.2C20.5754 13.0058 20.418 12.8484 20.2239 12.8484Z" fill="#1A4383" />
	<path d="M22.3271 12.3054L20.5752 13.7482V14.3438C20.5752 14.4329 20.6789 14.4819 20.7477 14.4252L22.7256 12.7964C22.7768 12.7542 22.7768 12.6758 22.7256 12.6336L22.3271 12.3054Z" fill="#1A4383" />
	<path d="M13.3026 18.393L15.6062 16.4673H16.4111C16.7294 15.9093 16.9118 15.2638 16.9118 14.5756C16.9118 12.4636 15.1997 10.7515 13.0878 10.7515C10.9758 10.7515 9.26367 12.4635 9.26367 14.5756C9.26367 16.6875 10.9758 18.3996 13.0878 18.3996C13.1599 18.3996 13.2314 18.397 13.3026 18.393Z" stroke="#BFC7D0" stroke-width="0.5" stroke-miterlimit="10" stroke-linecap="round" stroke-linejoin="round" />
	<path d="M14.3024 13.6463C14.3024 13.2489 13.9802 12.9268 13.5829 12.9268H12.5935C12.1962 12.9268 11.874 13.2489 11.874 13.6463V13.8561C11.874 14.2535 12.1962 14.5756 12.5935 14.5756H13.5829C13.9802 14.5756 14.3024 14.8978 14.3024 15.2951V15.505C14.3024 15.9023 13.9802 16.2245 13.5829 16.2245H12.5935C12.1962 16.2245 11.874 15.9023 11.874 15.505" stroke="#BFC7D0" stroke-width="0.5" stroke-miterlimit="10" stroke-linecap="round" stroke-linejoin="round" />
	<path d="M13.0879 12.2671V12.9267" stroke="#BFC7D0" stroke-width="0.5" stroke-miterlimit="10" stroke-linecap="round" stroke-linejoin="round" />
	<path d="M13.0879 16.2244V16.8839" stroke="#BFC7D0" stroke-width="0.5" stroke-miterlimit="10" stroke-linecap="round" stroke-linejoin="round" />
	<path d="M10.6719 14.2075V14.7349" stroke="#BFC7D0" stroke-width="0.5" stroke-miterlimit="10" stroke-linecap="round" stroke-linejoin="round" />
	<path d="M15.5039 14.2075V14.7349" stroke="#BFC7D0" stroke-width="0.5" stroke-miterlimit="10" stroke-linecap="round" stroke-linejoin="round" />
	<path d="M20.2915 20.2772C20.209 20.2772 20.1292 20.2482 20.066 20.1953L19.6982 19.8879V26.7292H26.1699C26.2669 26.7292 26.3457 26.6505 26.3457 26.5534V20.2772H20.2915Z" fill="white" />
	<path d="M21.0723 21.5583V26.7251H26.2066C26.286 26.7082 26.3457 26.6378 26.3457 26.5533V21.4529H21.1777C21.1195 21.4529 21.0723 21.5001 21.0723 21.5583Z" fill="white" />
	<path d="M25.2451 26.5533C25.2451 26.6503 25.1664 26.7291 25.0693 26.7291H26.1698C26.2669 26.7291 26.3456 26.6503 26.3456 26.5533V21.4529H25.2451V26.5533Z" fill="white" />
	<path d="M24.5878 21.4529H23.7656V26.7291H24.5878V21.4529Z" fill="white" />
	<path d="M22.8299 21.4529H22.0078V26.7291H22.8299V21.4529Z" fill="white" />
	<path d="M24.5879 21.4529H22.8301V26.7251H24.5879V21.4529Z" stroke="#BFC7D0" stroke-width="0.5" stroke-miterlimit="10" stroke-linecap="round" stroke-linejoin="round" />
	<path d="M21.0723 21.5583V26.7251H26.2066C26.286 26.7082 26.3457 26.6378 26.3457 26.5533V21.4529H21.1777C21.1195 21.4529 21.0723 21.5001 21.0723 21.5583Z" stroke="#BFC7D0" stroke-width="0.5" stroke-miterlimit="10" stroke-linecap="round" stroke-linejoin="round" />
	<path d="M19.6982 19.8879V26.7292H26.1699C26.2669 26.7292 26.3457 26.6505 26.3457 26.5534V20.2772" stroke="#BFC7D0" stroke-width="0.5" stroke-miterlimit="10" stroke-linecap="round" stroke-linejoin="round" />
	<path d="M11.5146 19.8879V26.5534C11.5146 26.6504 11.5934 26.7291 11.6904 26.7291H19.6985V19.8879L15.6066 16.4673L11.5146 19.8879Z" fill="white" />
	<path d="M15.6063 16.4673L14.832 17.1145L18.4717 20.1571C18.5516 20.2239 18.5978 20.3227 18.5978 20.4268V26.7291H19.6983V19.8879L15.6063 16.4673Z" fill="#BFC7D0" />
	<path d="M14.0469 21.5544V26.7291H17.1652V21.5544C17.1652 21.4962 17.118 21.449 17.0597 21.449H14.1523C14.0941 21.449 14.0469 21.4962 14.0469 21.5544Z" fill="#1A4383" />
	<path d="M17.0599 21.449H15.9609C16.0192 21.449 16.0664 21.4962 16.0664 21.5544V26.7291H17.1654V21.5544C17.1654 21.4962 17.1181 21.449 17.0599 21.449Z" fill="#1A4383" />
	<path d="M17.166 23.3809H16.3926C16.3343 23.3809 16.2871 23.4281 16.2871 23.4863V24.8574C16.2871 24.9157 16.3343 24.9629 16.3926 24.9629H17.166V23.3809Z" fill="white" />
	<path d="M17.166 23.3809H16.3926C16.3343 23.3809 16.2871 23.4281 16.2871 23.4863V24.8574C16.2871 24.9157 16.3343 24.9629 16.3926 24.9629H17.166V23.3809Z" stroke="#BFC7D0" stroke-width="0.5" stroke-miterlimit="10" stroke-linecap="round" stroke-linejoin="round" />
	<path d="M14.0469 21.5544V26.7291H17.1652V21.5544C17.1652 21.4962 17.118 21.449 17.0597 21.449H14.1523C14.0941 21.449 14.0469 21.4962 14.0469 21.5544Z" stroke="#BFC7D0" stroke-width="0.5" stroke-miterlimit="10" stroke-linecap="round" stroke-linejoin="round" />
	<path d="M11.5146 19.8879V23.8028" stroke="#BFC7D0" stroke-width="0.5" stroke-miterlimit="10" stroke-linecap="round" stroke-linejoin="round" />
	<path d="M11.5146 25.0333V26.5534C11.5146 26.6505 11.5934 26.7292 11.6904 26.7292H19.6985V19.8879" stroke="#BFC7D0" stroke-width="0.5" stroke-miterlimit="10" stroke-linecap="round" stroke-linejoin="round" />
	<path d="M26.6985 20.0908L24.7332 18.4479C24.3457 18.7984 23.8324 19.0121 23.27 19.0121C22.066 19.0121 21.0865 18.0326 21.0865 16.8286C21.0865 16.7055 21.0972 16.5849 21.1169 16.4673H15.6064L20.0661 20.1953C20.1294 20.2482 20.2092 20.2772 20.2916 20.2772H26.6309C26.7295 20.2771 26.7741 20.154 26.6985 20.0908Z" fill="white" />
	<path d="M26.6984 20.0909L24.7331 18.448C24.4822 18.6749 24.1783 18.844 23.8428 18.9354L25.225 20.0909C25.3006 20.1541 25.2559 20.2773 25.1573 20.2773H26.6307C26.7293 20.2772 26.774 20.1541 26.6984 20.0909Z" fill="white" />
	<path d="M21.081 16.4673H15.6064L20.0661 20.1953C20.1294 20.2482 20.2092 20.2772 20.2916 20.2772H21.4807" stroke="#BFC7D0" stroke-width="0.5" stroke-miterlimit="10" stroke-linecap="round" stroke-linejoin="round" />
	<path d="M22.7109 20.2772H26.6306C26.7292 20.2772 26.7739 20.154 26.6983 20.0908L24.7611 18.4714" stroke="#BFC7D0" stroke-width="0.5" stroke-miterlimit="10" stroke-linecap="round" stroke-linejoin="round" />
	<path d="M15.6064 16.4673L11.0488 20.2771" stroke="#BFC7D0" stroke-width="0.5" stroke-miterlimit="10" stroke-linecap="round" stroke-linejoin="round" />
	<path d="M23.2695 19.0474C24.4949 19.0474 25.4883 18.054 25.4883 16.8286C25.4883 15.6032 24.4949 14.6099 23.2695 14.6099C22.0441 14.6099 21.0508 15.6032 21.0508 16.8286C21.0508 18.054 22.0441 19.0474 23.2695 19.0474Z" fill="#1A4383" />
	<path d="M23.2696 14.6099C23.0816 14.6099 22.899 14.6335 22.7246 14.6775C23.6864 14.9205 24.3983 15.7913 24.3983 16.8286C24.3983 17.8659 23.6864 18.7367 22.7246 18.9797C22.899 19.0237 23.0816 19.0474 23.2696 19.0474C24.495 19.0474 25.4884 18.054 25.4884 16.8286C25.4884 15.6032 24.495 14.6099 23.2696 14.6099Z" fill="#1A4383" />
	<path d="M23.2695 19.0474C24.4949 19.0474 25.4883 18.054 25.4883 16.8286C25.4883 15.6032 24.4949 14.6099 23.2695 14.6099C22.0441 14.6099 21.0508 15.6032 21.0508 16.8286C21.0508 18.054 22.0441 19.0474 23.2695 19.0474Z" stroke="#BFC7D0" stroke-width="0.5" stroke-miterlimit="10" stroke-linecap="round" stroke-linejoin="round" />
	<path d="M23.828 15.8604L22.71 17.7969" stroke="white" stroke-width="0.5" stroke-miterlimit="10" stroke-linecap="round" stroke-linejoin="round" />
	<circle cx="22.4785" cy="15.8604" r="0.263672" fill="white" />
	<circle cx="24.0596" cy="17.7969" r="0.263672" fill="white" />
	<path d="M16.8027 13.6675H20.5751V14.3438C20.5751 14.4329 20.6788 14.4819 20.7476 14.4252L22.7255 12.7964C22.7767 12.7542 22.7767 12.6757 22.7255 12.6335L20.7476 11.0047C20.6788 10.9481 20.5751 10.997 20.5751 11.0861V11.7624H19.2301" stroke="#BFC7D0" stroke-width="0.5" stroke-miterlimit="10" stroke-linecap="round" stroke-linejoin="round" />
	<path d="M17.9999 11.7625H15.6777" stroke="#BFC7D0" stroke-width="0.5" stroke-miterlimit="10" stroke-linecap="round" stroke-linejoin="round" />
	<g clip-path="url(#clip0_579_1545)">
		<g clip-path="url(#clip1_579_1545)">
			<path d="M223.762 48.8763C218.233 48.8763 212.653 47.2083 207.824 43.7433L49.1499 -70.1287L-109.523 43.7423C-121.755 52.5223 -138.817 49.7643 -147.632 37.5823C-156.447 25.4023 -153.677 8.41228 -141.446 -0.365723L33.1879 -125.693C42.7199 -132.535 55.5789 -132.535 65.1109 -125.693L239.745 -0.365723C251.976 8.41228 254.747 25.4023 245.931 37.5823C240.597 44.9543 232.239 48.8743 223.762 48.8763Z" stroke="#1A4383" stroke-width="22" stroke-miterlimit="10" stroke-linecap="round" stroke-linejoin="round" />
		</g>
	</g>
	<defs>
		<clipPath id="clip0_579_1545">
			<rect width="18" height="18" fill="white" transform="translate(9 9.74023)" />
		</clipPath>
		<clipPath id="clip1_579_1545">
			<rect width="512" height="512" fill="white" transform="translate(-244 -240.26)" />
		</clipPath>
	</defs>
</svg>
