<svg width="37" height="38" viewBox="0 0 37 38" fill="none" xmlns="http://www.w3.org/2000/svg">
<rect x="0.0683594" y="0.839844" width="36.6553" height="36.6553" rx="18.3276" fill="#1A4383"/>
<path d="M11.5393 14.7868V11.8231H13.3305V13.3581L11.5393 14.7868ZM18.4321 19.0825C18.2083 19.0825 17.9867 19.1266 17.7799 19.2122C17.5732 19.2979 17.3853 19.4234 17.227 19.5817C17.0688 19.7399 16.9432 19.9278 16.8576 20.1346C16.7719 20.3413 16.7279 20.5629 16.7279 20.7867C16.7279 20.8022 16.7287 24.4878 16.7292 26.5123H12.2531L11.1953 17.2499L18.3961 11.5171L25.685 17.5072L25.2525 21.2943C24.8303 20.98 24.3524 20.7483 23.8441 20.6114L24.0205 19.2386H21.4835V20.6631C20.9941 20.8184 20.5374 21.0626 20.1364 21.3833V20.7871C20.1364 20.5633 20.0923 20.3416 20.0067 20.1349C19.9211 19.9281 19.7955 19.7402 19.6373 19.5819C19.479 19.4236 19.2911 19.2981 19.0844 19.2124C18.8776 19.1268 18.6559 19.0827 18.4321 19.0827V19.0825ZM15.3805 19.2385H12.8437L13.2226 22.1858H15.3807L15.3805 19.2385ZM21.4833 22.8286C21.3487 22.8286 21.2171 22.8685 21.1051 22.9433C20.9932 23.0181 20.9059 23.1244 20.8544 23.2488C20.8029 23.3732 20.7894 23.5101 20.8157 23.6421C20.842 23.7742 20.9068 23.8955 21.002 23.9907C21.0972 24.0859 21.2185 24.1507 21.3505 24.177C21.4826 24.2033 21.6195 24.1898 21.7439 24.1383C21.8683 24.0867 21.9746 23.9995 22.0494 23.8875C22.1242 23.7756 22.1641 23.644 22.1641 23.5093C22.1641 23.3288 22.0923 23.1558 21.9647 23.0281C21.8371 22.9005 21.664 22.8288 21.4835 22.8288L21.4833 22.8286ZM24.6163 25.9068C24.6163 26.0415 24.5763 26.1731 24.5015 26.285C24.4267 26.397 24.3204 26.4842 24.196 26.5357C24.0716 26.5873 23.9348 26.6008 23.8027 26.5745C23.6707 26.5482 23.5494 26.4834 23.4542 26.3882C23.359 26.293 23.2941 26.1717 23.2679 26.0396C23.2416 25.9076 23.2551 25.7707 23.3066 25.6463C23.3581 25.5219 23.4454 25.4156 23.5573 25.3408C23.6693 25.266 23.8009 25.2261 23.9355 25.2261C24.025 25.2261 24.1135 25.2437 24.1961 25.2779C24.2787 25.3121 24.3538 25.3622 24.417 25.4255C24.4803 25.4887 24.5304 25.5638 24.5646 25.6464C24.5989 25.729 24.6165 25.8176 24.6164 25.907L24.6163 25.9068Z" fill="white"/>
<path d="M26.2414 18.2672C26.2894 18.3067 26.3511 18.3255 26.413 18.3195C26.4748 18.3135 26.5318 18.2833 26.5714 18.2354L27.661 16.9173C27.6807 16.8935 27.6955 16.8661 27.7045 16.8365C27.7136 16.807 27.7167 16.7759 27.7137 16.7452C27.7107 16.7144 27.7017 16.6845 27.6872 16.6573C27.6726 16.63 27.6528 16.6059 27.6289 16.5863L18.8984 9.42483C18.7566 9.30945 18.5797 9.24589 18.3968 9.24465C18.214 9.2434 18.0363 9.30455 17.8929 9.41799L13.5657 12.8696V12.1255H13.822C13.8843 12.1255 13.944 12.1007 13.988 12.0567C14.032 12.0127 14.0568 11.953 14.0568 11.8907V10.6773C14.0568 10.615 14.032 10.5553 13.988 10.5113C13.944 10.4673 13.8843 10.4425 13.822 10.4425H11.0485C10.9862 10.4425 10.9265 10.4673 10.8825 10.5113C10.8385 10.5553 10.8138 10.615 10.8138 10.6773V11.8907C10.8138 11.953 10.8385 12.0127 10.8825 12.0567C10.9265 12.1007 10.9862 12.1255 11.0485 12.1255H11.305V14.6729L9.16648 16.3787C9.11793 16.4174 9.08671 16.4738 9.07965 16.5355C9.07259 16.5972 9.09026 16.6591 9.1288 16.7078L10.1901 18.0488C10.2093 18.0731 10.233 18.0933 10.26 18.1083C10.287 18.1233 10.3167 18.1328 10.3474 18.1364C10.3781 18.1399 10.4091 18.1373 10.4388 18.1288C10.4685 18.1203 10.4963 18.106 10.5204 18.0868L11.0105 17.6966L12.0202 26.5381C12.0267 26.5954 12.0541 26.6483 12.0971 26.6867C12.1401 26.7251 12.1958 26.7463 12.2534 26.7463H18.8464C19.1558 27.3265 19.5906 27.8305 20.1191 28.2217C20.6476 28.613 21.2567 28.8815 21.902 29.008C22.5473 29.1344 23.2126 29.1155 23.8497 28.9527C24.4868 28.7899 25.0796 28.4872 25.5851 28.0666C26.0906 27.6461 26.4961 27.1182 26.7721 26.5213C27.0481 25.9245 27.1877 25.2737 27.1808 24.6161C27.1738 23.9586 27.0205 23.3109 26.732 22.72C26.4434 22.1291 26.0269 21.6099 25.5126 21.2001L25.8884 17.977L26.2414 18.2672ZM11.2832 10.912H13.5873V11.656H11.2832V10.912ZM11.7744 12.1255H13.0962V13.2441L11.7744 14.2984V12.1255ZM10.4122 17.5727L9.64206 16.5997L18.1859 9.785C18.245 9.73824 18.3183 9.71304 18.3937 9.71356C18.4691 9.71408 18.5421 9.74029 18.6006 9.78786L27.149 16.7996L26.3587 17.7557L18.5455 11.3348C18.504 11.3007 18.452 11.2819 18.3983 11.2815C18.3446 11.2811 18.2923 11.2991 18.2503 11.3326L10.4122 17.5727ZM16.9645 26.2768C16.9642 25.1957 16.963 20.8046 16.963 20.786C16.962 20.5924 16.9993 20.4005 17.0727 20.2213C17.1461 20.0422 17.2542 19.8793 17.3907 19.742C17.5273 19.6048 17.6896 19.4958 17.8684 19.4215C18.0472 19.3472 18.2389 19.3089 18.4325 19.3089C18.6261 19.3089 18.8178 19.3472 18.9966 19.4215C19.1754 19.4958 19.3377 19.6048 19.4743 19.742C19.6108 19.8793 19.7189 20.0422 19.7923 20.2213C19.8657 20.4005 19.903 20.5924 19.902 20.786V21.2741C19.1929 21.8698 18.6887 22.673 18.4603 23.5705C18.2319 24.468 18.2909 25.4146 18.629 26.2768H16.9645ZM26.7116 24.6607C26.7116 25.4438 26.4794 26.2092 26.0444 26.8603C25.6093 27.5114 24.991 28.0189 24.2675 28.3186C23.544 28.6183 22.7479 28.6967 21.9799 28.5439C21.2119 28.3911 20.5064 28.014 19.9527 27.4603C19.399 26.9066 19.0219 26.2011 18.8691 25.4331C18.7164 24.6651 18.7948 23.869 19.0944 23.1455C19.3941 22.4221 19.9016 21.8037 20.5527 21.3687C21.2038 20.9336 21.9693 20.7014 22.7523 20.7014C23.802 20.7026 24.8084 21.1201 25.5507 21.8624C26.2929 22.6046 26.7105 23.611 26.7116 24.6607ZM23.6447 20.3223C23.0081 20.192 22.3506 20.2028 21.7186 20.3541V19.4725H23.754L23.6447 20.3223ZM25.0759 20.892C24.771 20.7033 24.4441 20.5524 24.1026 20.4427L24.2537 19.2677C24.2579 19.2346 24.2551 19.201 24.2453 19.1691C24.2355 19.1372 24.2191 19.1078 24.1971 19.0827C24.175 19.0577 24.1479 19.0376 24.1175 19.0239C24.0872 19.0102 24.0542 19.0031 24.0208 19.0031H21.4838C21.4216 19.0031 21.3619 19.0278 21.3179 19.0718C21.2738 19.1158 21.2491 19.1755 21.2491 19.2378V20.4948C20.9414 20.6062 20.647 20.7515 20.3714 20.9279V20.786C20.3726 20.5307 20.3233 20.2776 20.2264 20.0413C20.1294 19.8051 19.9868 19.5903 19.8066 19.4093C19.6265 19.2283 19.4123 19.0847 19.1765 18.9868C18.9407 18.8888 18.6878 18.8383 18.4325 18.8383C18.1771 18.8383 17.9243 18.8888 17.6884 18.9868C17.4526 19.0847 17.2385 19.2283 17.0583 19.4093C16.8782 19.5903 16.7355 19.8051 16.6386 20.0413C16.5417 20.2776 16.4924 20.5307 16.4935 20.786C16.4935 20.8046 16.4947 25.1955 16.495 26.2768H12.4629L11.4436 17.3517L18.3942 11.8181L25.4571 17.6225L25.0759 20.892ZM15.3811 19.0031H12.844C12.8107 19.0031 12.7777 19.0102 12.7473 19.0239C12.7169 19.0376 12.6898 19.0577 12.6678 19.0827C12.6458 19.1078 12.6293 19.1372 12.6196 19.1691C12.6098 19.201 12.607 19.2346 12.6112 19.2677L12.9901 22.215C12.9974 22.2716 13.025 22.3236 13.0679 22.3613C13.1107 22.399 13.1659 22.4198 13.2229 22.4198H15.381C15.4433 22.4198 15.503 22.3951 15.547 22.3511C15.591 22.307 15.6158 22.2473 15.6158 22.1851V19.2378C15.6158 19.1755 15.591 19.1158 15.547 19.0718C15.503 19.0278 15.4433 19.0031 15.381 19.0031H15.3811ZM15.1464 21.9503H13.4294L13.1109 19.4725H15.1463L15.1464 21.9503ZM21.484 24.3916C21.6651 24.3917 21.8421 24.338 21.9928 24.2374C22.1434 24.1368 22.2608 23.9938 22.3301 23.8265C22.3994 23.6591 22.4176 23.475 22.3823 23.2974C22.3469 23.1197 22.2597 22.9565 22.1316 22.8285C22.0036 22.7004 21.8404 22.6132 21.6627 22.5779C21.4851 22.5425 21.301 22.5607 21.1336 22.63C20.9663 22.6993 20.8233 22.8167 20.7227 22.9673C20.6221 23.118 20.5684 23.295 20.5685 23.4761C20.5688 23.7188 20.6653 23.9515 20.8369 24.1231C21.0085 24.2948 21.2411 24.3914 21.4838 24.3917L21.484 24.3916ZM21.484 23.0297C21.5722 23.0297 21.6585 23.0558 21.7319 23.1048C21.8053 23.1539 21.8625 23.2235 21.8963 23.3051C21.9301 23.3866 21.939 23.4763 21.9218 23.5629C21.9046 23.6494 21.8621 23.729 21.7998 23.7914C21.7374 23.8538 21.6579 23.8963 21.5713 23.9136C21.4847 23.9308 21.395 23.922 21.3135 23.8882C21.2319 23.8545 21.1622 23.7973 21.1132 23.7239C21.0641 23.6505 21.038 23.5642 21.038 23.476C21.0381 23.3578 21.0851 23.2444 21.1687 23.1608C21.2523 23.0771 21.3656 23.0301 21.4838 23.0298L21.484 23.0297ZM22.9879 25.8892C22.9879 26.0703 23.0416 26.2473 23.1422 26.3978C23.2428 26.5484 23.3858 26.6657 23.553 26.735C23.7203 26.8043 23.9044 26.8224 24.082 26.7871C24.2596 26.7518 24.4227 26.6646 24.5507 26.5365C24.6788 26.4085 24.766 26.2454 24.8013 26.0678C24.8366 25.8902 24.8185 25.7061 24.7492 25.5389C24.6799 25.3716 24.5626 25.2286 24.412 25.128C24.2615 25.0274 24.0845 24.9737 23.9034 24.9737C23.6606 24.974 23.4279 25.0706 23.2563 25.2422C23.0846 25.4138 22.9881 25.6465 22.9878 25.8893L22.9879 25.8892ZM24.3497 25.8892C24.3497 25.9774 24.3236 26.0636 24.2746 26.137C24.2256 26.2103 24.1559 26.2675 24.0744 26.3013C23.9929 26.335 23.9032 26.3438 23.8167 26.3266C23.7302 26.3094 23.6507 26.2669 23.5884 26.2046C23.526 26.1422 23.4835 26.0627 23.4663 25.9762C23.4491 25.8897 23.4579 25.8 23.4917 25.7185C23.5254 25.637 23.5826 25.5674 23.656 25.5184C23.7293 25.4693 23.8155 25.4432 23.9037 25.4432C24.022 25.4434 24.1353 25.4905 24.2189 25.5741C24.3024 25.6577 24.3495 25.7711 24.3496 25.8893L24.3497 25.8892ZM20.8734 26.5213L24.1006 22.6484C24.1407 22.6012 24.1978 22.5717 24.2594 22.5664C24.3211 22.5611 24.3823 22.5803 24.4299 22.6199C24.4774 22.6596 24.5074 22.7163 24.5133 22.7779C24.5192 22.8395 24.5005 22.901 24.4613 22.9489L21.2339 26.8219C21.2143 26.8459 21.1901 26.8657 21.1627 26.8803C21.1354 26.895 21.1054 26.904 21.0745 26.9069C21.0436 26.9099 21.0125 26.9067 20.9829 26.8976C20.9532 26.8884 20.9257 26.8735 20.9019 26.8536C20.8781 26.8338 20.8584 26.8094 20.8441 26.7819C20.8297 26.7544 20.821 26.7244 20.8183 26.6935C20.8156 26.6626 20.8191 26.6315 20.8285 26.6019C20.838 26.5724 20.8531 26.545 20.8732 26.5214L20.8734 26.5213Z" fill="white" fill-opacity="0.6"/>
</svg>
