<svg width="37" height="37" viewBox="0 0 37 37" fill="none" xmlns="http://www.w3.org/2000/svg">
<rect width="36.6553" height="36.6553" rx="18.3276" fill="#1A4383"/>
<path d="M26.78 15.6016L18.8423 10.1031C18.7453 10.036 18.6301 10 18.5121 10C18.3941 10 18.2789 10.036 18.1818 10.1031L15.6743 11.8395V11.7016C15.6743 11.4758 15.5846 11.2593 15.425 11.0997C15.2654 10.9401 15.0489 10.8504 14.8231 10.8504H13.972C13.7462 10.8504 13.5297 10.9401 13.3701 11.0997C13.2105 11.2593 13.1208 11.4758 13.1208 11.7016V13.6082L10.243 15.6016C10.1819 15.6439 10.1298 15.6979 10.0896 15.7604C10.0494 15.823 10.0219 15.8928 10.0087 15.966C9.99553 16.0391 9.99691 16.1142 10.0128 16.1868C10.0287 16.2594 10.0587 16.3282 10.1012 16.3892L10.4632 16.9081C10.5521 17.0352 10.6876 17.122 10.8402 17.1494C10.9929 17.1769 11.1502 17.1429 11.2778 17.0548L11.4196 16.9575V23.9015C11.4201 24.2776 11.5697 24.6382 11.8356 24.9041C12.1016 25.1701 12.4621 25.3197 12.8382 25.3201V25.8876C12.8382 26.1886 12.9578 26.4772 13.1706 26.6901C13.3835 26.9029 13.6721 27.0225 13.9731 27.0225H23.051C23.352 27.0225 23.6407 26.9029 23.8535 26.6901C24.0663 26.4772 24.1859 26.1886 24.1859 25.8876V25.3201C24.562 25.3197 24.9226 25.1701 25.1885 24.9041C25.4544 24.6382 25.6041 24.2776 25.6045 23.9015V16.9575L25.7464 17.0548C25.874 17.1428 26.0313 17.1768 26.1839 17.1493C26.3365 17.1219 26.472 17.0351 26.5609 16.9081L26.923 16.3889C26.9654 16.3279 26.9955 16.2592 27.0113 16.1866C27.0272 16.114 27.0286 16.039 27.0154 15.9658C27.0022 15.8927 26.9747 15.8229 26.9345 15.7604C26.8943 15.6979 26.8422 15.6439 26.7811 15.6016H26.78ZM13.6883 11.7016C13.6883 11.6263 13.7182 11.5542 13.7714 11.501C13.8246 11.4477 13.8967 11.4179 13.972 11.4179H14.8231C14.8984 11.4179 14.9706 11.4477 15.0238 11.501C15.077 11.5542 15.1069 11.6263 15.1069 11.7016V12.2327L13.6883 13.2152V11.7016ZM23.6185 25.8876C23.6185 26.0381 23.5587 26.1824 23.4523 26.2888C23.3458 26.3952 23.2015 26.455 23.051 26.455H13.972C13.8215 26.455 13.6772 26.3952 13.5707 26.2888C13.4643 26.1824 13.4045 26.0381 13.4045 25.8876V21.9155C13.4045 21.765 13.4643 21.6207 13.5707 21.5143C13.6772 21.4078 13.8215 21.3481 13.972 21.3481H23.051C23.2015 21.3481 23.3458 21.4078 23.4523 21.5143C23.5587 21.6207 23.6185 21.765 23.6185 21.9155V25.8876ZM18.5115 19.6457C18.3993 19.6457 18.2896 19.6125 18.1962 19.5501C18.1029 19.4878 18.0302 19.3991 17.9873 19.2954C17.9443 19.1918 17.9331 19.0777 17.955 18.9676C17.9769 18.8575 18.0309 18.7564 18.1103 18.6771C18.1896 18.5977 18.2907 18.5437 18.4008 18.5218C18.5109 18.4999 18.625 18.5111 18.7287 18.5541C18.8323 18.597 18.921 18.6697 18.9833 18.763C19.0457 18.8564 19.0789 18.9661 19.0789 19.0783C19.0789 19.2288 19.0192 19.3731 18.9127 19.4795C18.8063 19.586 18.662 19.6457 18.5115 19.6457ZM17.7801 19.9388C17.9827 20.1157 18.2425 20.2132 18.5115 20.2132C18.7805 20.2132 19.0403 20.1157 19.2429 19.9388L20.7969 20.7806H16.2261L17.7801 19.9388ZM25.0371 23.9015C25.0371 24.1273 24.9474 24.3438 24.7878 24.5034C24.6281 24.663 24.4116 24.7527 24.1859 24.7527V21.9155C24.1859 21.6145 24.0663 21.3258 23.8535 21.113C23.6407 20.9002 23.352 20.7806 23.051 20.7806H21.9879L19.572 19.4718C19.6375 19.3 19.6602 19.1148 19.6383 18.9323C19.6163 18.7497 19.5503 18.5752 19.446 18.4238C19.3416 18.2724 19.2021 18.1487 19.0393 18.0631C18.8765 17.9776 18.6954 17.933 18.5115 17.933C18.3276 17.933 18.1465 17.9776 17.9837 18.0631C17.821 18.1487 17.6814 18.2724 17.577 18.4238C17.4727 18.5752 17.4067 18.7497 17.3847 18.9323C17.3628 19.1148 17.3855 19.3 17.451 19.4718L15.0351 20.7806H13.972C13.671 20.7806 13.3823 20.9002 13.1695 21.113C12.9567 21.3258 12.8371 21.6145 12.8371 21.9155V24.7527C12.6114 24.7527 12.3949 24.663 12.2352 24.5034C12.0756 24.3438 11.9859 24.1273 11.9859 23.9015V16.5654L18.5183 12.0517L25.0371 16.5645V23.9015ZM26.0684 16.5884L18.8423 11.5855C18.7453 11.5184 18.6301 11.4824 18.5121 11.4824C18.3941 11.4824 18.2789 11.5184 18.1818 11.5855L10.9546 16.5884C10.9526 16.5898 10.9503 16.5909 10.9479 16.5914C10.9455 16.592 10.943 16.5921 10.9406 16.5916C10.9382 16.5912 10.9358 16.5903 10.9338 16.589C10.9317 16.5876 10.9299 16.5859 10.9285 16.5838L10.5673 16.0683L18.5183 10.5692L26.4557 16.0646L26.0684 16.5884Z" fill="white"/>
<path d="M15.107 22.4829H14.5396C14.4643 22.4829 14.3922 22.5128 14.339 22.566C14.2858 22.6192 14.2559 22.6914 14.2559 22.7666V25.0364C14.2559 25.1116 14.2858 25.1838 14.339 25.237C14.3922 25.2902 14.4643 25.3201 14.5396 25.3201C14.6148 25.3201 14.687 25.2902 14.7402 25.237C14.7934 25.1838 14.8233 25.1116 14.8233 25.0364V24.1852H15.107C15.1823 24.1852 15.2544 24.2151 15.3076 24.2683C15.3608 24.3215 15.3907 24.3937 15.3907 24.469V25.0364C15.3907 25.1116 15.4206 25.1838 15.4738 25.237C15.527 25.2902 15.5992 25.3201 15.6745 25.3201C15.7497 25.3201 15.8219 25.2902 15.8751 25.237C15.9283 25.1838 15.9582 25.1116 15.9582 25.0364V24.469C15.9574 24.2589 15.8786 24.0566 15.7369 23.9015C15.8478 23.7799 15.9209 23.6286 15.9473 23.4661C15.9737 23.3036 15.9521 23.1369 15.8853 22.9865C15.8185 22.836 15.7093 22.7083 15.5711 22.6188C15.4329 22.5294 15.2716 22.4822 15.107 22.4829ZM14.8233 23.6178V23.0504H15.107C15.1823 23.0504 15.2544 23.0803 15.3076 23.1335C15.3608 23.1867 15.3907 23.2588 15.3907 23.3341C15.3907 23.4093 15.3608 23.4815 15.3076 23.5347C15.2544 23.5879 15.1823 23.6178 15.107 23.6178H14.8233Z" fill="white"/>
<path d="M22.4838 22.4829H21.3489C21.2737 22.4829 21.2015 22.5128 21.1483 22.566C21.0951 22.6192 21.0652 22.6914 21.0652 22.7666C21.0652 22.8419 21.0951 22.914 21.1483 22.9673C21.2015 23.0205 21.2737 23.0504 21.3489 23.0504H21.6326V25.0364C21.6326 25.1116 21.6625 25.1838 21.7157 25.237C21.7689 25.2902 21.8411 25.3201 21.9163 25.3201C21.9916 25.3201 22.0638 25.2902 22.117 25.237C22.1702 25.1838 22.2001 25.1116 22.2001 25.0364V23.0504H22.4838C22.559 23.0504 22.6312 23.0205 22.6844 22.9673C22.7376 22.914 22.7675 22.8419 22.7675 22.7666C22.7675 22.6914 22.7376 22.6192 22.6844 22.566C22.6312 22.5128 22.559 22.4829 22.4838 22.4829Z" fill="white"/>
<path d="M17.9445 23.0504C18.0197 23.0504 18.0919 23.0205 18.1451 22.9673C18.1983 22.914 18.2282 22.8419 18.2282 22.7666C18.2282 22.6914 18.1983 22.6192 18.1451 22.566C18.0919 22.5128 18.0197 22.4829 17.9445 22.4829H16.8096C16.7344 22.4829 16.6622 22.5128 16.609 22.566C16.5558 22.6192 16.5259 22.6914 16.5259 22.7666V25.0364C16.5259 25.1116 16.5558 25.1838 16.609 25.237C16.6622 25.2902 16.7344 25.3201 16.8096 25.3201H17.9445C18.0197 25.3201 18.0919 25.2902 18.1451 25.237C18.1983 25.1838 18.2282 25.1116 18.2282 25.0364C18.2282 24.9611 18.1983 24.889 18.1451 24.8358C18.0919 24.7826 18.0197 24.7527 17.9445 24.7527H17.0933V24.1852H17.377C17.4523 24.1852 17.5245 24.1553 17.5777 24.1021C17.6309 24.0489 17.6608 23.9768 17.6608 23.9015C17.6608 23.8263 17.6309 23.7541 17.5777 23.7009C17.5245 23.6477 17.4523 23.6178 17.377 23.6178H17.0933V23.0504H17.9445Z" fill="white"/>
<path d="M20.2138 22.4827C20.1385 22.4827 20.0664 22.5126 20.0132 22.5658C19.96 22.619 19.9301 22.6912 19.9301 22.7664V23.8343L19.3343 22.6396C19.3061 22.5815 19.2591 22.5348 19.2009 22.5071C19.1426 22.4793 19.0767 22.4723 19.0139 22.487C18.9511 22.5018 18.8953 22.5375 18.8555 22.5883C18.8157 22.6391 18.7945 22.7019 18.7952 22.7664V25.0362C18.7952 25.1114 18.8251 25.1836 18.8783 25.2368C18.9315 25.29 19.0037 25.3199 19.0789 25.3199C19.1542 25.3199 19.2263 25.29 19.2795 25.2368C19.3327 25.1836 19.3626 25.1114 19.3626 25.0362V23.9682L19.9584 25.163C19.9821 25.2104 20.0186 25.2502 20.0637 25.2779C20.1088 25.3056 20.1608 25.3202 20.2138 25.3199C20.2356 25.3198 20.2574 25.3173 20.2788 25.3125C20.341 25.2979 20.3965 25.2626 20.4362 25.2124C20.476 25.1623 20.4975 25.1001 20.4975 25.0362V22.7664C20.4975 22.6912 20.4676 22.619 20.4144 22.5658C20.3612 22.5126 20.289 22.4827 20.2138 22.4827Z" fill="white"/>
</svg>
