<svg width="36" height="36" viewBox="0 0 36 36" fill="none" xmlns="http://www.w3.org/2000/svg">
	<rect y="-0.00195312" width="35.0488" height="35.0488" rx="17.5244" fill="#5E7489" />
	<g clip-path="url(#clip0_579_1465)">
		<mask id="mask0_579_1465" style="mask-type:luminance" maskUnits="userSpaceOnUse" x="9" y="8" width="18" height="19">
			<path d="M9 8.74024H27V26.7402H9V8.74024Z" fill="white" />
		</mask>
		<g mask="url(#mask0_579_1465)">
			<path d="M26.5559 18.1194L19.8991 14.4162C19.7928 14.3571 19.6635 14.3571 19.5572 14.4162L12.9004 18.1194C12.7889 18.1814 12.7197 18.299 12.7197 18.4266V18.7668C12.7197 18.961 12.8772 19.1184 13.0713 19.1184H26.385C26.5792 19.1184 26.7366 18.961 26.7366 18.7668V18.4266C26.7366 18.299 26.6674 18.1814 26.5559 18.1194Z" fill="#5E7489" />
			<path d="M26.5559 18.1194L19.8991 14.4162C19.7928 14.3571 19.6635 14.3571 19.5572 14.4162L12.9004 18.1194C12.7889 18.1814 12.7197 18.299 12.7197 18.4266V18.7668C12.7197 18.961 12.8772 19.1184 13.0713 19.1184H26.385C26.5792 19.1184 26.7366 18.961 26.7366 18.7668V18.4266C26.7366 18.299 26.6674 18.1814 26.5559 18.1194Z" stroke="#BFC7D0" stroke-width="0.4" stroke-miterlimit="10" stroke-linecap="round" stroke-linejoin="round" />
			<path d="M25.9604 19.1045V26.125C25.9604 26.3192 25.803 26.4766 25.6088 26.4766H13.9873C13.7931 26.4766 13.6357 26.3192 13.6357 26.125V19.1045L19.5581 15.7982C19.6636 15.7393 19.7919 15.7387 19.8979 15.7966L25.9604 19.1045Z" fill="#F1F6F7" />
			<path d="M25.9604 22.624V19.1044L19.8979 15.7964C19.7919 15.7386 19.6636 15.7392 19.5581 15.7981L13.6357 19.1044V19.3405" fill="white" />
			<path d="M25.9604 22.624V19.1044L19.8979 15.7964C19.7919 15.7386 19.6636 15.7392 19.5581 15.7981L13.6357 19.1044V19.3405" stroke="#BFC7D0" stroke-width="0.4" stroke-miterlimit="10" stroke-linecap="round" stroke-linejoin="round" />
			<path d="M13.6357 20.4979V26.125C13.6357 26.3192 13.7931 26.4766 13.9873 26.4766H25.6088C25.803 26.4766 25.9604 26.3192 25.9604 26.125V23.9383" stroke="#BFC7D0" stroke-width="0.4" stroke-miterlimit="10" stroke-linecap="round" stroke-linejoin="round" />
			<path d="M18.1904 21.7611V26.4766H22.2661V21.7611C22.2661 21.6039 22.1954 21.4766 22.1082 21.4766H18.3483C18.2611 21.4766 18.1904 21.6039 18.1904 21.7611Z" fill="#5E7489" stroke="#BFC7D0" stroke-width="0.4" stroke-miterlimit="10" stroke-linecap="round" stroke-linejoin="round" />
			<path d="M20.6166 18.8423H18.9805C18.7863 18.8423 18.6289 18.6849 18.6289 18.4907V18.031C18.6289 17.8369 18.7863 17.6795 18.9805 17.6795H20.6166C20.8108 17.6795 20.9682 17.8369 20.9682 18.031V18.4907C20.9682 18.6849 20.8108 18.8423 20.6166 18.8423Z" fill="#5E7489" />
			<path d="M20.6166 18.8423H18.9805C18.7863 18.8423 18.6289 18.6849 18.6289 18.4907V18.031C18.6289 17.8369 18.7863 17.6795 18.9805 17.6795H20.6166C20.8108 17.6795 20.9682 17.8369 20.9682 18.031V18.4907C20.9682 18.6849 20.8108 18.8423 20.6166 18.8423Z" stroke="#5E7489" stroke-width="0.4" stroke-miterlimit="10" stroke-linecap="round" stroke-linejoin="round" />
			<path d="M11.3122 13.0825L10.0912 11.8616C9.95396 11.7243 9.95396 11.5017 10.0912 11.3644L10.4592 10.9965C10.5965 10.8592 10.8191 10.8592 10.9564 10.9965L12.1773 12.2174L11.3122 13.0825Z" fill="white" />
			<path d="M11.3122 13.0825L10.0912 11.8616C9.95396 11.7243 9.95396 11.5017 10.0912 11.3644L10.4592 10.9965C10.5965 10.8592 10.8191 10.8592 10.9564 10.9965L12.1773 12.2174L11.3122 13.0825Z" stroke="#BFC7D0" stroke-width="0.4" stroke-miterlimit="10" stroke-linecap="round" stroke-linejoin="round" />
			<path d="M20.161 11.7288L19.0417 10.772C18.9277 10.6745 18.7517 10.7555 18.7517 10.9056V11.255H13.3128C11.0765 11.255 9.26367 13.0678 9.26367 15.3041C9.26367 17.5404 11.0765 19.3533 13.3128 19.3533C15.5491 19.3533 17.362 17.5404 17.362 15.3041C17.362 14.2006 16.9203 13.2003 16.2044 12.47H18.7517V12.8193C18.7517 12.9694 18.9277 13.0504 19.0417 12.9529L20.161 11.9961C20.243 11.9259 20.243 11.799 20.161 11.7288Z" fill="#5E7489" />
			<path d="M13.3127 12.4699C11.7474 12.4699 10.4785 13.7388 10.4785 15.304C10.4785 16.8693 11.7474 18.1382 13.3127 18.1382C14.8779 18.1382 16.1468 16.8693 16.1468 15.304C16.1468 13.7388 14.8779 12.4699 13.3127 12.4699Z" fill="#5E7489" />
			<path d="M13.3127 12.4699C11.7474 12.4699 10.4785 13.7388 10.4785 15.304C10.4785 16.8693 11.7474 18.1382 13.3127 18.1382C14.8779 18.1382 16.1468 16.8693 16.1468 15.304C16.1468 13.7388 14.8779 12.4699 13.3127 12.4699Z" stroke="#BFC7D0" stroke-width="0.4" stroke-miterlimit="10" stroke-linecap="round" stroke-linejoin="round" />
			<path d="M13.3124 14.4529V15.3042H12.5332" stroke="#BFC7D0" stroke-width="0.4" stroke-miterlimit="10" stroke-linecap="round" stroke-linejoin="round" />
			<path d="M14 10.2273H12.625C12.4308 10.2273 12.2734 10.0699 12.2734 9.87573V9.35538C12.2734 9.16122 12.4308 9.00382 12.625 9.00382H14C14.1942 9.00382 14.3516 9.16122 14.3516 9.35538V9.87573C14.3516 10.0699 14.1942 10.2273 14 10.2273Z" fill="white" />
			<path d="M14 10.2273H12.625C12.4308 10.2273 12.2734 10.0699 12.2734 9.87573V9.35538C12.2734 9.16122 12.4308 9.00382 12.625 9.00382H14C14.1942 9.00382 14.3516 9.16122 14.3516 9.35538V9.87573C14.3516 10.0699 14.1942 10.2273 14 10.2273Z" stroke="#BFC7D0" stroke-width="0.4" stroke-miterlimit="10" stroke-linecap="round" stroke-linejoin="round" />
			<path d="M13.3125 10.2406V11.2549" stroke="#BFC7D0" stroke-width="0.4" stroke-miterlimit="10" stroke-linecap="round" stroke-linejoin="round" />
			<path d="M15.8414 11.2549H13.3128C11.0765 11.2549 9.26367 13.0678 9.26367 15.3041C9.26367 17.5404 11.0765 19.3533 13.3128 19.3533C15.5492 19.3533 17.362 17.5404 17.362 15.3041C17.362 14.2005 16.9203 13.2003 16.2044 12.4699H18.7517V12.8193C18.7517 12.9694 18.9277 13.0504 19.0417 12.9529L20.161 11.9961C20.2431 11.9259 20.2431 11.799 20.161 11.7288L19.0417 10.772C18.9277 10.6745 18.7517 10.7555 18.7517 10.9056V11.2549H17.0142" stroke="#BFC7D0" stroke-width="0.4" stroke-miterlimit="10" stroke-linecap="round" stroke-linejoin="round" />
		</g>
	</g>
	<defs>
		<clipPath id="clip0_579_1465">
			<rect width="18" height="18" fill="white" transform="translate(9 8.74023)" />
		</clipPath>
	</defs>
</svg>
